<svg xmlns="http://www.w3.org/2000/svg" width="16" height="16" viewBox="0 0 16 16">
  <g id="surface1" transform="translate(1.969)">
    <circle id="Ellipse_155" data-name="Ellipse 155" cx="8" cy="8" r="8" transform="translate(-1.969)" fill="#fff"/>
    <path id="Path_2387" data-name="Path 2387" d="M1.59,8.721C.594,5.526,2.7,4.36,2.7,4.36a4.848,4.848,0,0,0,.848,3.033,5.39,5.39,0,0,0,1.065-.61A10.8,10.8,0,0,1,4.244,8.72a5.126,5.126,0,0,0,1.7-2.584A4.432,4.432,0,0,0,5.168,2.9a4.253,4.253,0,0,1-1.1,3.122.617.617,0,0,0,.1-.145,5.119,5.119,0,0,0,.233-2.615A4.2,4.2,0,0,0,2.069,0C2.254,1.4,1.7,1.722.406,4.379A3.457,3.457,0,0,0,1.59,8.721Zm0,0" transform="translate(3 4)" fill="#fa641e"/>
  </g>
</svg>
