<svg xmlns="http://www.w3.org/2000/svg" width="16" height="16" viewBox="0 0 16 16">
  <g id="surface1" transform="translate(1.969)">
    <circle id="Ellipse_155" data-name="Ellipse 155" cx="8" cy="8" r="8" transform="translate(-1.969)" fill="#383838"/>
    <path id="Path_9687" data-name="Path 9687" d="M16.439,12.6a.506.506,0,0,0-.7.148,3.79,3.79,0,0,1-3.111,1.811V11.9l1.637-.409a.5.5,0,0,0-.244-.98l-1.393.348V9.88l1.637-.409a.5.5,0,0,0-.244-.98L12.63,8.84V7.972a.5.5,0,0,0-1.01,0V9.093L9.983,9.5a.5.5,0,1,0,.244.98l1.393-.348v.98l-1.637.409a.5.5,0,1,0,.244.98l1.393-.348v2.888a.506.506,0,0,0,.429.5,3.383,3.383,0,0,0,.464.027A4.779,4.779,0,0,0,16.587,13.3.5.5,0,0,0,16.439,12.6Z" transform="translate(-6.569 -3.466)" fill="#fff"/>
  </g>
</svg>
