<svg xmlns="http://www.w3.org/2000/svg" width="16" height="16" viewBox="0 0 16 16">
  <g id="surface1" transform="translate(1.969)">
    <circle id="Ellipse_155" data-name="Ellipse 155" cx="8" cy="8" r="8" transform="translate(-1.969)" fill="#32c5ff"/>
    <g id="megaphone" transform="translate(1.936 3.92)">
      <g id="Group_3285" data-name="Group 3285" transform="translate(0.016 2.014)">
        <g id="Group_3284" data-name="Group 3284" transform="translate(0)">
          <path id="Path_9688" data-name="Path 9688" d="M4.1,129.48v-3.112c-.088.008-.175.022-.264.026H1.291a.255.255,0,0,0-.255.255v.255H.271a.255.255,0,0,0-.255.255v1.53a.255.255,0,0,0,.255.255h.765v.255a.255.255,0,0,0,.255.255h.155l1.025,2.732a.507.507,0,0,0,.375.317.5.5,0,0,0,.46-.14l.612-.607a.509.509,0,0,0,.094-.59l-.856-1.712h.677C3.922,129.458,4.008,129.472,4.1,129.48Z" transform="translate(-0.016 -126.368)" fill="#fff"/>
        </g>
      </g>
      <g id="Group_3287" data-name="Group 3287" transform="translate(4.606)">
        <g id="Group_3286" data-name="Group 3286">
          <path id="Path_9689" data-name="Path 9689" d="M291.544.123A.178.178,0,0,0,291.527.1a.252.252,0,0,0-.107-.082l0,0c-.005,0-.01,0-.015,0A.254.254,0,0,0,291.331,0a.237.237,0,0,0-.049.01.282.282,0,0,0-.029.006.253.253,0,0,0-.112.072l-.007,0a5.366,5.366,0,0,1-3.118,1.848V5.2a5.365,5.365,0,0,1,3.118,1.847l.008.007a.247.247,0,0,0,.063.049.258.258,0,0,0,.021.015.262.262,0,0,0,.1.022.266.266,0,0,0,.086-.015l0,0a.248.248,0,0,0,.107-.082l.016-.024a.247.247,0,0,0,.042-.132V.255A.247.247,0,0,0,291.544.123Z" transform="translate(-288.016)" fill="#fff"/>
        </g>
      </g>
    </g>
  </g>
</svg>
