<svg xmlns="http://www.w3.org/2000/svg" width="12" height="16" viewBox="0 0 12 16">
    <path fill="#383838" d="M5.677 16a6.121 6.121 0 0 1-4.126-1.369A4.672 4.672 0 0 1 0 11.007a7.76 7.76 0 0 1 .72-3.22 5.441 5.441 0 0 0 .541-2.149c0-.192-.016-.42-.031-.621-.011-.153-.02-.285-.02-.369a.394.394 0 0 1 .4-.442 2.367 2.367 0 0 1 1.86 1.478 1.991 1.991 0 0 0 .139-.765 6.5 6.5 0 0 0-1.776-3.8.771.771 0 0 1-.212-.497c0-.4.339-.622.954-.622a10.087 10.087 0 0 1 6.184 2.221A8.892 8.892 0 0 1 12 9.4a6.743 6.743 0 0 1-1.739 4.789A6.167 6.167 0 0 1 5.677 16zm-1-6.738c-.028 0-.048.024-.053.065a2.349 2.349 0 0 1-.422.91 2.793 2.793 0 0 0-.575 1.632 2 2 0 0 0 2.183 2.024 2.364 2.364 0 0 0 1.88-.809 2.916 2.916 0 0 0 .621-1.884 4.187 4.187 0 0 0-2.348-3.717.091.091 0 0 0-.033-.007.059.059 0 0 0-.045.019.089.089 0 0 0-.018.07 4.363 4.363 0 0 1-.41 2.8 3.007 3.007 0 0 0-.734-1.08.091.091 0 0 0-.05-.023z"/>
</svg>
