<svg id="Group_3614" data-name="Group 3614" xmlns="http://www.w3.org/2000/svg" width="23.995" height="24" viewBox="0 0 23.995 24">
  <path id="Path_10565" data-name="Path 10565" d="M32.943,19.771a.522.522,0,0,0-.792-.392,1.593,1.593,0,0,1-1.921-.224,1.552,1.552,0,0,1-.3-.436.521.521,0,0,0-.526-.293,2.6,2.6,0,0,1-2.883-2.45.522.522,0,0,0-.493-.493A2.6,2.6,0,0,1,23.58,12.6a.522.522,0,0,0-.293-.526,1.536,1.536,0,0,1-.66-2.22.521.521,0,0,0-.392-.792A12.218,12.218,0,0,0,21.006,9a12,12,0,1,0,11.937,10.77Zm-17.47-4.305.738-.738a.522.522,0,0,1,.738.738l-.738.738a.522.522,0,0,1-.738-.738Zm.738,5.165-1.476,1.476A.522.522,0,0,1,14,21.369l1.476-1.476a.522.522,0,0,1,.738.738Zm2.583,7.532H17.318a.522.522,0,0,1,0-1.044h1.476a.522.522,0,0,1,0,1.044Zm2.582-5.318a.521.521,0,0,1-.738,0l-.738-.738a.522.522,0,1,1,.738-.738l.738.738A.521.521,0,0,1,21.376,22.845Zm0-5.9-.738.738a.522.522,0,1,1-.738-.738l.738-.738a.522.522,0,0,1,.738.738Zm5.165,8.117L25.8,25.8a.522.522,0,1,1-.738-.738l.738-.738a.522.522,0,0,1,.738.738Z" transform="translate(-9.012 -9.001)" fill="#101c2b"/>
</svg>
