<svg id="loyalty" xmlns="http://www.w3.org/2000/svg" width="13.208" height="16.511" viewBox="0 0 13.208 16.511">
  <path id="Combined_Shape" data-name="Combined Shape" d="M11.123,16.51H2.085A2.078,2.078,0,0,1,0,14.444V8.657H6.188v7.759h.833V8.657h6.188v5.787A2.078,2.078,0,0,1,11.123,16.51Zm2.085-8.679H0v-1.8A2.078,2.078,0,0,1,2.085,3.969h1.97a3.323,3.323,0,0,1-.875-.575,2.746,2.746,0,0,1-.9-1.919A1.4,1.4,0,0,1,2.691.426,1.554,1.554,0,0,1,3.786,0,2.945,2.945,0,0,1,5.738.916a3.928,3.928,0,0,1,.886,1.31A3.914,3.914,0,0,1,7.51.916,2.945,2.945,0,0,1,9.462,0a1.557,1.557,0,0,1,1.1.426,1.4,1.4,0,0,1,.413,1.049,2.749,2.749,0,0,1-.9,1.919,3.325,3.325,0,0,1-.876.575h1.931a2.078,2.078,0,0,1,2.085,2.066v1.8ZM3.8.824a.755.755,0,0,0-.534.2.61.61,0,0,0-.159.455A1.933,1.933,0,0,0,3.758,2.8a4.8,4.8,0,0,0,2.285.921l.157.03-.024-.14a4.01,4.01,0,0,0-.9-1.984l-.11-.111A2.136,2.136,0,0,0,3.8.824Zm5.645,0a2.136,2.136,0,0,0-1.36.689,3.856,3.856,0,0,0-1.014,2.1l-.025.137.158-.027a5.165,5.165,0,0,0,2.2-.845L9.491,2.8a1.968,1.968,0,0,0,.648-1.319.61.61,0,0,0-.158-.455A.758.758,0,0,0,9.446.824Z" transform="translate(0 0)" fill="#383838"/>
</svg>
