<svg id="Stroke_1" data-name="Stroke 1" xmlns="http://www.w3.org/2000/svg" width="18" height="16.5" viewBox="0 0 18 16.5">
  <path id="Stroke_1-2" data-name="Stroke 1" d="M9,16.5H9L1.4,8.548A5.1,5.1,0,0,1,0,5.01,5.1,5.1,0,0,1,1.4,1.471a4.693,4.693,0,0,1,6.825,0L9,2.283l.776-.811A4.725,4.725,0,0,1,13.016,0l.173,0A4.683,4.683,0,0,1,16.6,1.472,5.091,5.091,0,0,1,18,5.01a5.088,5.088,0,0,1-1.4,3.537L15.479,9.725,9,16.5ZM4.812.965A3.749,3.749,0,0,0,2.1,2.138a4.211,4.211,0,0,0,0,5.745L9,15.1l5.779-6.044L15.9,7.883a4.2,4.2,0,0,0,0-5.744,3.721,3.721,0,0,0-5.425,0L9,3.68,7.528,2.14A3.744,3.744,0,0,0,4.812.965Z" transform="translate(0 0)" fill="#383838"/>
</svg>
