<svg xmlns="http://www.w3.org/2000/svg" width="38.927" height="38.927" viewBox="0 0 38.927 38.927">
  <g id="Group_9" data-name="Group 9" transform="translate(0.476 0.476)">
    <path id="Fill_10" data-name="Fill 10" d="M37.974,18.987A18.987,18.987,0,1,1,18.987,0,18.988,18.988,0,0,1,37.974,18.987" transform="translate(0)" fill="none" stroke="#fff" stroke-miterlimit="10" stroke-width="0.952"/>
    <path id="Fill_12" data-name="Fill 12" d="M10.978,21.955c-2.964,0-3.354-.013-4.526-.066a8.135,8.135,0,0,1-2.665-.51,5.369,5.369,0,0,1-1.944-1.266A5.369,5.369,0,0,1,.577,18.168,8.1,8.1,0,0,1,.067,15.5C.013,14.335,0,13.946,0,10.977S.013,7.62.067,6.451a8.085,8.085,0,0,1,.51-2.664A5.365,5.365,0,0,1,1.843,1.842,5.383,5.383,0,0,1,3.787.576,8.135,8.135,0,0,1,6.452.066C7.624.013,8.014,0,10.978,0S14.332.013,15.5.066a8.143,8.143,0,0,1,2.665.51,5.608,5.608,0,0,1,3.21,3.211,8.085,8.085,0,0,1,.51,2.664c.054,1.168.067,1.557.067,4.526s-.013,3.358-.067,4.526a8.1,8.1,0,0,1-.51,2.665,5.609,5.609,0,0,1-3.21,3.21,8.143,8.143,0,0,1-2.665.51C14.332,21.942,13.943,21.955,10.978,21.955Zm0-19.976c-2.937,0-3.283.011-4.436.063A6.09,6.09,0,0,0,4.5,2.42a3.393,3.393,0,0,0-1.262.821A3.4,3.4,0,0,0,2.42,4.5a6.105,6.105,0,0,0-.378,2.038c-.053,1.149-.064,1.5-.064,4.436s.011,3.287.064,4.436a6.105,6.105,0,0,0,.378,2.039,3.39,3.39,0,0,0,.822,1.262,3.4,3.4,0,0,0,1.262.822,6.09,6.09,0,0,0,2.039.378c1.169.053,1.518.064,4.436.064s3.266-.011,4.435-.064a6.09,6.09,0,0,0,2.039-.378,3.643,3.643,0,0,0,2.083-2.083,6.088,6.088,0,0,0,.378-2.039c.053-1.149.064-1.5.064-4.436s-.011-3.287-.064-4.436A6.088,6.088,0,0,0,19.535,4.5a3.4,3.4,0,0,0-.822-1.262,3.4,3.4,0,0,0-1.262-.821,6.09,6.09,0,0,0-2.039-.379C14.26,1.989,13.914,1.978,10.978,1.978Z" transform="translate(8.029 8.408)" fill="#fff"/>
    <path id="Fill_14" data-name="Fill 14" d="M5.637,11.273a5.637,5.637,0,1,1,5.637-5.637A5.643,5.643,0,0,1,5.637,11.273Zm0-9.3A3.659,3.659,0,1,0,9.3,5.637,3.664,3.664,0,0,0,5.637,1.977Z" transform="translate(13.37 13.748)" fill="#fff"/>
    <path id="Fill_16" data-name="Fill 16" d="M2.635,1.318A1.317,1.317,0,1,1,1.317,0,1.317,1.317,0,0,1,2.635,1.318" transform="translate(23.549 12.207)" fill="#fff"/>
  </g>
</svg>
