<svg xmlns="http://www.w3.org/2000/svg" width="12.001" height="18" viewBox="0 0 12.001 18">
  <g id="Combined_Shape" data-name="Combined Shape" transform="translate(0.001)">
    <path id="Combined_Shape-2" data-name="Combined Shape" d="M5.289,17.774A1.333,1.333,0,0,1,4.8,17.21L1.088,9.637C1,9.475.873,9.21.727,8.868A8.886,8.886,0,0,1,.045,6.948,6.434,6.434,0,0,1,.276,4.321a6.239,6.239,0,0,1,1.283-2.3A5.877,5.877,0,0,1,3.855.412a5.844,5.844,0,0,1,5.4.574,6.28,6.28,0,0,1,1.924,2.053,6,6,0,0,1,.752,3.91A11.191,11.191,0,0,1,11.273,9c-.128.293-.239.531-.321.688L7.243,17.21a1.309,1.309,0,0,1-.522.554A1.407,1.407,0,0,1,6,18,1.364,1.364,0,0,1,5.289,17.774ZM3.454,1.663a4.512,4.512,0,0,0-1.2,1.027A5.188,5.188,0,0,0,.987,6.815a6.916,6.916,0,0,0,.592,1.693c.128.3.243.529.341.719L5.6,16.8a.4.4,0,0,0,.373.259l.038,0h.022a.455.455,0,0,0,.229-.062.642.642,0,0,0,.171-.2l3.7-7.584c.1-.176.207-.414.311-.646a10.651,10.651,0,0,0,.622-1.827,5.12,5.12,0,0,0-.651-3.222,5.086,5.086,0,0,0-3.1-2.411A5.271,5.271,0,0,0,6.008.945H5.993A4.861,4.861,0,0,0,3.454,1.663ZM6,9.124A2.359,2.359,0,0,1,3.865,7.7a2.373,2.373,0,0,1-.13-1.376,2.23,2.23,0,0,1,.631-1.21A2.273,2.273,0,0,1,6.885,4.6,2.367,2.367,0,0,1,8.316,6.784a2.441,2.441,0,0,1-.682,1.673,2.288,2.288,0,0,1-1.617.668ZM5.228,5.574a1.358,1.358,0,0,0-.511.636,1.435,1.435,0,0,0,.295,1.556,1.36,1.36,0,0,0,1.519.3,1.345,1.345,0,0,0,.622-.524A1.456,1.456,0,0,0,7,5.748a1.357,1.357,0,0,0-.973-.41H6A1.368,1.368,0,0,0,5.228,5.574Z" transform="translate(-0.001)" fill="#383838"/>
  </g>
</svg>
