<svg xmlns="http://www.w3.org/2000/svg" width="18.609" height="18.151" viewBox="0 0 18.609 18.151">
  <g id="Icon_Contact" data-name="Icon / Contact" transform="translate(0.662 0.5)">
    <g id="Color">
      <path id="Stroke_1" data-name="Stroke 1" d="M17.285,0V9.176a1.4,1.4,0,0,1-1.4,1.4H1.4A1.4,1.4,0,0,1,0,9.176V0" transform="translate(0 6.578)" fill="none" stroke="#383838" stroke-linecap="round" stroke-miterlimit="10" stroke-width="1"/>
      <path id="Stroke_3" data-name="Stroke 3" d="M17.276,0,8.953,3.97a.832.832,0,0,1-.631,0L0,0" transform="translate(0.005 6.578)" fill="none" stroke="#383838" stroke-linecap="round" stroke-miterlimit="10" stroke-width="1"/>
      <path id="Stroke_5" data-name="Stroke 5" d="M13,7.587V.07a.07.07,0,0,0-.07-.07H.07A.07.07,0,0,0,0,.07V7.587" transform="translate(2.143)" fill="none" stroke="#383838" stroke-linecap="round" stroke-miterlimit="10" stroke-width="1"/>
      <path id="Stroke_7" data-name="Stroke 7" d="M0,0H1.794a.35.35,0,0,1,.349.349V1.633" transform="translate(15.142 4.945)" fill="none" stroke="#383838" stroke-linecap="round" stroke-miterlimit="10" stroke-width="1"/>
      <path id="Stroke_9" data-name="Stroke 9" d="M2.143,0H.349A.35.35,0,0,0,0,.349V1.633" transform="translate(0 4.945)" fill="none" stroke="#383838" stroke-linecap="round" stroke-miterlimit="10" stroke-width="1"/>
      <path id="Stroke_11" data-name="Stroke 11" d="M1.258.05H0" transform="translate(13.281 14.418)" fill="none" stroke="#383838" stroke-linecap="round" stroke-miterlimit="10" stroke-width="1"/>
      <path id="Fill_13" data-name="Fill 13" d="M2.456,5.547a2.813,2.813,0,0,1-1.374-.311,1.926,1.926,0,0,1-.835-.922A3.336,3.336,0,0,1,0,2.835a3.448,3.448,0,0,1,.38-1.473A2.517,2.517,0,0,1,1.323.356,2.594,2.594,0,0,1,2.671,0a2.582,2.582,0,0,1,1.3.311,1.978,1.978,0,0,1,.819.894,2.875,2.875,0,0,1,.241,1.355A2.121,2.121,0,0,1,4.639,3.8a1.15,1.15,0,0,1-.953.461.862.862,0,0,1-.431-.106.738.738,0,0,1-.292-.3.932.932,0,0,1-.783.393.792.792,0,0,1-.5-.168A.972.972,0,0,1,1.365,3.6a1.739,1.739,0,0,1-.06-.7,2.186,2.186,0,0,1,.479-1.2,1.219,1.219,0,0,1,.956-.453,1.367,1.367,0,0,1,.753.2l.188.125L3.528,3.326a.417.417,0,0,0,.063.331.284.284,0,0,0,.223.083.5.5,0,0,0,.425-.323,1.929,1.929,0,0,0,.189-.826,2.131,2.131,0,0,0-.412-1.536A1.692,1.692,0,0,0,2.659.512,1.808,1.808,0,0,0,1.648.8a2,2,0,0,0-.7.822,3.093,3.093,0,0,0-.29,1.211,2.256,2.256,0,0,0,.417,1.594,1.724,1.724,0,0,0,1.393.552A2.613,2.613,0,0,0,3,4.923a2.3,2.3,0,0,0,.455-.136l.11.494a1.541,1.541,0,0,1-.49.192A2.678,2.678,0,0,1,2.456,5.547ZM2.8,1.819a.589.589,0,0,0-.513.26,1.8,1.8,0,0,0-.237.82,1.2,1.2,0,0,0,.061.585.317.317,0,0,0,.3.2.35.35,0,0,0,.257-.125A.952.952,0,0,0,2.864,3.2l.12-1.358A.736.736,0,0,0,2.8,1.819Z" transform="translate(6.128 2.171)" fill="#5c6ac5"/>
    </g>
  </g>
</svg>
