<svg xmlns="http://www.w3.org/2000/svg" width="29.255" height="25.327" viewBox="0 0 29.255 25.327">
  <g id="Group_4117" data-name="Group 4117" transform="translate(-23.804 -346.923)">
    <g id="_139-basket-outline" data-name="139-basket-outline" transform="translate(0.274 297.26)">
      <path id="Path_10576" data-name="Path 10576" d="M79.82,58.17a.474.474,0,0,1-.409-.232l-3.435-5.783L73.481,53.8a.476.476,0,0,1-.3.077l2.16,3.571a.475.475,0,0,1-.814.492l-4.165-6.884L63.6,55.4l1.162,1.96a.475.475,0,0,1-.817.485l-1.4-2.353a.475.475,0,0,1,.152-.642l7.557-4.856a.475.475,0,0,1,.663.154l1.859,3.073A.473.473,0,0,1,72.958,53l2.911-1.917a.474.474,0,0,1,.368-.066.48.48,0,0,1,.3.22l2.105,3.544a.461.461,0,0,1,.122-.113L81.82,52.7a.475.475,0,0,1,.67.163l2.583,4.5a.475.475,0,0,1-.825.473L81.915,53.77l-2.634,1.7a.478.478,0,0,1-.188.071l1.135,1.911a.475.475,0,0,1-.166.651A.468.468,0,0,1,79.82,58.17Z" transform="translate(-35.794)" fill="#04b722" stroke="#04b722" stroke-width="0.5"/>
      <path id="Path_10577" data-name="Path 10577" d="M103.206,228.968a.475.475,0,0,1-.462-.365l-1.965-8.24a.475.475,0,0,1,.924-.22l1.965,8.24a.475.475,0,0,1-.352.572A.436.436,0,0,1,103.206,228.968Zm9.553-.008a.485.485,0,0,1-.057,0,.475.475,0,0,1-.415-.529l.821-6.838a.475.475,0,0,1,.944.114l-.821,6.838A.476.476,0,0,1,112.759,228.96Zm-3.25,0h0a.475.475,0,0,1-.473-.477l.03-5.926a.475.475,0,0,1,.475-.473h0a.475.475,0,0,1,.473.477l-.03,5.926A.476.476,0,0,1,109.509,228.96Zm6.329,0a.461.461,0,0,1-.11-.013.475.475,0,0,1-.353-.571l1.945-8.237a.475.475,0,0,1,.925.218l-1.945,8.237A.475.475,0,0,1,115.838,228.957Zm-9.547-.053a.475.475,0,0,1-.471-.417l-.833-6.65a.475.475,0,1,1,.944-.118l.833,6.65a.476.476,0,0,1-.413.531A.4.4,0,0,1,106.291,228.9Z" transform="translate(-71.198 -157.084)" fill="#04b722" stroke="#04b722" stroke-width="0.5"/>
      <path id="Path_10578" data-name="Path 10578" d="M206.927,63.365h0a.672.672,0,0,1-.472-1.248l.023-10.053a.476.476,0,0,1,.475-.474h0a.476.476,0,0,1,.474.477L207.4,62.218a.846.846,0,0,1-.477,1.147Z" transform="translate(-168.621 -1.549)" fill="#383838" stroke="#383838" stroke-width="0.5"/>
      <path id="Path_10579" data-name="Path 10579" d="M51.09,151.993H25.225a1.447,1.447,0,0,1-1.445-1.445v-1.293a1.447,1.447,0,0,1,1.445-1.445H51.09a1.447,1.447,0,0,1,1.445,1.445v1.293A1.447,1.447,0,0,1,51.09,151.993ZM25.225,148.76a.5.5,0,0,0-.495.495v1.293a.5.5,0,0,0,.495.495H51.09a.5.5,0,0,0,.495-.495v-1.293a.5.5,0,0,0-.495-.495Z" transform="translate(0 -90.534)" fill="#383838" stroke="#383838" stroke-width="0.5"/>
      <path id="Path_10580" data-name="Path 10580" d="M59.4,205.032H44.861a2.77,2.77,0,0,1-2.535-1.888l-3.483-11.652a.476.476,0,0,1,.911-.272l3.483,11.651a1.826,1.826,0,0,0,1.624,1.21H59.4A1.8,1.8,0,0,0,61,202.871l3.379-11.728a.475.475,0,1,1,.913.263l-3.379,11.728A2.742,2.742,0,0,1,59.4,205.032Z" transform="translate(-13.912 -130.292)" fill="#383838" stroke="#383838" stroke-width="0.5"/>
      <ellipse id="Ellipse_448" data-name="Ellipse 448" cx="1.329" cy="1.237" rx="1.329" ry="1.237" transform="translate(36.889 60.613)" fill="#383838" stroke="#383838" stroke-width="0.5"/>
    </g>
  </g>
</svg>
