<svg xmlns="http://www.w3.org/2000/svg" id="Icon_Shipping" width="32" height="32" viewBox="0 0 32 32">
    <defs>
        <style>
            .cls-1{fill:none;stroke:#383838;stroke-linecap:round;stroke-miterlimit:10;stroke-width:1.5px}
        </style>
    </defs>
    <g id="Color" transform="translate(2.03 6.092)">
        <path id="Stroke_1" d="M0 .048h8.931" class="cls-1" transform="translate(8.652 16.374)"/>
        <path id="Stroke_2" d="M17.586 4.489V.614a.612.612 0 0 0-.61-.61L.614 0A.612.612 0 0 0 0 .61v15.181a.612.612 0 0 0 .61.61h2.115" class="cls-1"/>
        <path id="Stroke_4" d="M5.763 0v2.62a.306.306 0 0 1-.305.3H.3a.306.306 0 0 1-.3-.302V0" class="cls-1" transform="translate(5.692 .001)"/>
        <path id="Stroke_6" d="M5.927 2.964A2.963 2.963 0 1 1 2.964 0a2.963 2.963 0 0 1 2.963 2.964z" class="cls-1" transform="translate(2.725 13.439)"/>
        <path id="Stroke_8" d="M5.926 2.964A2.963 2.963 0 1 1 2.964 0a2.963 2.963 0 0 1 2.962 2.964z" class="cls-1" transform="translate(19.561 13.443)"/>
        <path id="Stroke_10" d="M1.978 11.917H0V0h2.9" class="cls-1" transform="translate(17.583 4.489)"/>
        <path id="Stroke_12" d="M2.423 0v3.875a.612.612 0 0 1-.61.61H0" class="cls-1" transform="translate(25.488 11.923)"/>
        <path id="Stroke_14" d="M7.43 7.433A7.432 7.432 0 0 0 0 0" class="cls-1" transform="translate(20.481 4.489)"/>
        <path id="Stroke_16" d="M0 0h8.182a1.937 1.937 0 0 1 2.144 1.78" class="cls-1" transform="translate(17.585 11.188)"/>
    </g>
</svg>
