<svg xmlns="http://www.w3.org/2000/svg" width="18.534" height="25.5" viewBox="0 0 18.534 25.5">
  <g id="Color" transform="translate(0.75 0.75)">
    <path id="Stroke_1" data-name="Stroke 1" d="M.05,0V8.458" transform="translate(16.984 6.966)" fill="none" stroke="#383838" stroke-linecap="round" stroke-miterlimit="10" stroke-width="1.5"/>
    <path id="Stroke_3" data-name="Stroke 3" d="M0,.05H17.034" transform="translate(0 6.916)" fill="none" stroke="#383838" stroke-linecap="round" stroke-miterlimit="10" stroke-width="1.5"/>
    <path id="Stroke_5" data-name="Stroke 5" d="M.05,7.951V0" transform="translate(-0.05 6.966)" fill="none" stroke="#383838" stroke-linecap="round" stroke-miterlimit="10" stroke-width="1.5"/>
    <path id="Stroke_7" data-name="Stroke 7" d="M17.034.507V5.083a4.012,4.012,0,0,1-4,4H4a4.012,4.012,0,0,1-4-4V0" transform="translate(0 14.917)" fill="none" stroke="#383838" stroke-linecap="round" stroke-miterlimit="10" stroke-width="1.5"/>
    <path id="Stroke_9" data-name="Stroke 9" d="M0,6.966V5.035a5.035,5.035,0,1,1,10.07,0V6.966" transform="translate(3.482)" fill="none" stroke="#383838" stroke-linecap="round" stroke-miterlimit="10" stroke-width="1.5"/>
    <path id="Stroke_11" data-name="Stroke 11" d="M5.78,0A4,4,0,0,1,2.89,1.173,4,4,0,0,1,0,0" transform="translate(5.627 17.155)" fill="none" stroke="#383838" stroke-linecap="round" stroke-miterlimit="10" stroke-width="1.5"/>
  </g>
</svg>
