<svg xmlns="http://www.w3.org/2000/svg" width="14" height="14" viewBox="0 0 14 14">
    <path fill="#383838" d="M10.463 14a1.347 1.347 0 0 1-.636-.168L7.284 12.41a.578.578 0 0 0-.278-.072.586.586 0 0 0-.286.072l-2.528 1.42a1.283 1.283 0 0 1-1.4-.08 1.236 1.236 0 0 1-.461-.567 1.362 1.362 0 0 1-.1-.734l.509-3.136a.561.561 0 0 0 0-.279.471.471 0 0 0-.14-.234L.392 6.544a1.254 1.254 0 0 1-.342-.638 1.3 1.3 0 0 1 0-.718A1.276 1.276 0 0 1 .488 4.6a1.317 1.317 0 0 1 .652-.3l2.933-.455a.618.618 0 0 0 .286-.1.566.566 0 0 0 .2-.231l1.27-2.74a1.339 1.339 0 0 1 .493-.559A1.292 1.292 0 0 1 7.006 0a1.308 1.308 0 0 1 .707.207A1.267 1.267 0 0 1 8.2.766l1.28 2.745a.606.606 0 0 0 .175.223.642.642 0 0 0 .262.112l2.941.455a1.23 1.23 0 0 1 .668.3 1.277 1.277 0 0 1 .405.591 1.337 1.337 0 0 1-.3 1.357l-2.2 2.258a.7.7 0 0 0-.143.231.665.665 0 0 0 0 .279l.493 3.128a1.362 1.362 0 0 1-.087.734 1.284 1.284 0 0 1-.461.567 1.316 1.316 0 0 1-.763.247z"/>
</svg>
