<svg xmlns="http://www.w3.org/2000/svg" width="38.927" height="38.927" viewBox="0 0 38.927 38.927">
  <g id="Group_10" data-name="Group 10" transform="translate(0.476 0.476)">
    <path id="Fill_18" data-name="Fill 18" d="M37.974,18.987A18.987,18.987,0,1,1,18.988,0,18.987,18.987,0,0,1,37.974,18.987" transform="translate(0)" fill="none" stroke="#fff" stroke-miterlimit="10" stroke-width="0.952"/>
    <path id="Fill_20" data-name="Fill 20" d="M0,15.371a12.386,12.386,0,0,0,6.709,1.967A12.381,12.381,0,0,0,19.151,4.318a8.875,8.875,0,0,0,2.184-2.266,8.742,8.742,0,0,1-2.514.689A4.381,4.381,0,0,0,20.745.32a8.767,8.767,0,0,1-2.779,1.063,4.38,4.38,0,0,0-7.458,3.992A12.423,12.423,0,0,1,1.486.8,4.382,4.382,0,0,0,2.841,6.645,4.359,4.359,0,0,1,.857,6.1a4.382,4.382,0,0,0,3.511,4.347,4.379,4.379,0,0,1-1.976.075,4.377,4.377,0,0,0,4.088,3.04A8.794,8.794,0,0,1,0,15.371" transform="translate(9.738 11.251)" fill="#fff"/>
  </g>
</svg>
