<svg xmlns="http://www.w3.org/2000/svg" width="38.927" height="38.927" viewBox="0 0 38.927 38.927">
  <g id="Group_8" data-name="Group 8" transform="translate(0.476 0.476)">
    <path id="Fill_1" data-name="Fill 1" d="M37.975,18.987A18.987,18.987,0,1,1,18.987,0,18.987,18.987,0,0,1,37.975,18.987" transform="translate(0)" fill="none" stroke="#fff" stroke-miterlimit="10" stroke-width="0.952"/>
    <path id="Fill_3" data-name="Fill 3" d="M18.359,15.109H3.227A3.231,3.231,0,0,1,0,11.882V3.227A3.231,3.231,0,0,1,3.227,0H18.359a3.231,3.231,0,0,1,3.227,3.227v8.654A3.231,3.231,0,0,1,18.359,15.109ZM8.635,3.077v8.129L14.8,7.141Z" transform="translate(8.194 11.432)" fill="#fff"/>
  </g>
</svg>
