<svg width="209" height="119" viewBox="0 0 209 119" fill="none" xmlns="http://www.w3.org/2000/svg">
<g clip-path="url(#clip0)">
<path d="M152.764 29.4185H148.874C148.024 29.4185 147.336 30.1004 147.336 30.942C147.336 31.7835 148.024 32.4654 148.874 32.4654H152.764C153.403 32.4654 153.924 32.9805 153.924 33.6139V41.6036H148.552C147.702 41.6036 147.014 42.2855 147.014 43.127C147.014 43.9686 147.702 44.6505 148.552 44.6505H153.924V88.3136H142.286C141.436 88.3136 140.748 88.9955 140.748 89.8371C140.748 90.6786 141.436 91.3605 142.286 91.3605H153.924V99.3502C153.924 99.9836 153.403 100.499 152.764 100.499H56.2364C55.5967 100.499 55.0762 99.9836 55.0762 99.3502V91.3605H135.209C136.059 91.3605 136.747 90.6786 136.747 89.8371C136.747 88.9955 136.059 88.3136 135.209 88.3136H55.0762V44.6507H60.4083C61.2577 44.6507 61.9464 43.9688 61.9464 43.1272C61.9464 42.2857 61.2577 41.6038 60.4083 41.6038H55.0762V33.6141C55.0762 32.9807 55.5967 32.4656 56.2364 32.4656H60.4083C61.2577 32.4656 61.9464 31.7837 61.9464 30.9422C61.9464 30.1006 61.2577 29.4187 60.4083 29.4187H56.2364C53.9005 29.4185 52.0001 31.3007 52.0001 33.6141V99.3504C52.0001 101.664 53.9005 103.546 56.2364 103.546H93.1535L91.0785 109.86H86.77C83.8249 109.86 81.429 112.233 81.429 115.15C81.429 117.273 83.1728 119 85.3164 119H123.684C125.828 119 127.572 117.273 127.572 115.15C127.572 112.233 125.176 109.86 122.231 109.86H117.922L115.847 103.546H152.764C155.1 103.546 157.001 101.664 157.001 99.3504V33.6141C157 31.3007 155.1 29.4185 152.764 29.4185ZM114.687 109.86H104.688C103.838 109.86 103.15 110.542 103.15 111.384C103.15 112.225 103.838 112.907 104.688 112.907H122.23C123.479 112.907 124.495 113.913 124.495 115.15C124.495 115.592 124.131 115.953 123.684 115.953H85.3162C84.869 115.953 84.5049 115.592 84.5049 115.15C84.5049 113.913 85.5211 112.907 86.7698 112.907H97.5897C98.4392 112.907 99.1278 112.225 99.1278 111.384C99.1278 110.542 98.4392 109.86 97.5897 109.86H94.3134L96.3884 103.546H112.612L114.687 109.86Z" fill="#383838"/>
<path d="M66.5598 79.1794H78.9279C79.7773 79.1794 80.466 78.4975 80.466 77.6559C80.466 76.8144 79.7773 76.1325 78.9279 76.1325H68.0979V18.0464H140.901V76.1325H86.1891C85.3397 76.1325 84.651 76.8144 84.651 77.6559C84.651 78.4975 85.3397 79.1794 86.1891 79.1794H142.439C143.288 79.1794 143.977 78.4975 143.977 77.6559V16.523C143.977 15.6815 143.288 14.9996 142.439 14.9996H66.5598C65.7104 14.9996 65.0217 15.6815 65.0217 16.523V77.6559C65.0217 78.4973 65.7104 79.1794 66.5598 79.1794Z" fill="#383838"/>
<path d="M79.8642 34.1294C80.1525 34.4152 80.5438 34.5756 80.9517 34.5756C81.3596 34.5756 81.7508 34.4152 82.0392 34.1296L88.4645 27.7651C89.0652 27.1699 89.0652 26.2055 88.4645 25.6105C87.8639 25.0158 86.89 25.0158 86.2896 25.6105L80.9517 30.8979L78.8266 28.7929C78.2261 28.1977 77.2523 28.1979 76.6516 28.7927C76.051 29.3878 76.051 30.3523 76.6516 30.947L79.8642 34.1294Z" fill="#383838"/>
<path d="M97.6321 28.3349H131.26C132.109 28.3349 132.798 27.653 132.798 26.8114C132.798 25.9699 132.109 25.288 131.26 25.288H97.6321C96.7826 25.288 96.094 25.9699 96.094 26.8114C96.094 27.653 96.7826 28.3349 97.6321 28.3349Z" fill="#383838"/>
<path d="M97.6321 34.4519H126.072C126.921 34.4519 127.61 33.77 127.61 32.9285C127.61 32.087 126.921 31.4051 126.072 31.4051H97.6321C96.7826 31.4051 96.094 32.087 96.094 32.9285C96.094 33.77 96.7826 34.4519 97.6321 34.4519Z" fill="#383838"/>
<path d="M76.6516 48.1663L79.8644 51.3486C80.1527 51.6344 80.544 51.7949 80.9519 51.7949C81.3597 51.7949 81.751 51.6344 82.0393 51.3488L88.4647 44.9843C89.0654 44.3892 89.0654 43.4247 88.4647 42.8298C87.8641 42.235 86.8902 42.235 86.2898 42.8298L80.9519 48.1171L78.8267 46.0121C78.2263 45.4172 77.2524 45.417 76.6518 46.0119C76.0509 46.6069 76.0509 47.5713 76.6516 48.1663Z" fill="#383838"/>
<path d="M97.6321 45.5546H131.26C132.109 45.5546 132.798 44.8727 132.798 44.0312C132.798 43.1896 132.109 42.5077 131.26 42.5077H97.6321C96.7826 42.5077 96.094 43.1896 96.094 44.0312C96.094 44.8727 96.7826 45.5546 97.6321 45.5546Z" fill="#383838"/>
<path d="M97.6321 51.6714H126.072C126.921 51.6714 127.61 50.9896 127.61 50.148C127.61 49.3065 126.921 48.6246 126.072 48.6246H97.6321C96.7826 48.6246 96.094 49.3065 96.094 50.148C96.094 50.9896 96.7826 51.6714 97.6321 51.6714Z" fill="#383838"/>
<path d="M97.6321 62.7739H131.26C132.109 62.7739 132.798 62.092 132.798 61.2504C132.798 60.4089 132.109 59.727 131.26 59.727H97.6321C96.7826 59.727 96.094 60.4089 96.094 61.2504C96.094 62.092 96.7826 62.7739 97.6321 62.7739Z" fill="#383838"/>
<path d="M97.6321 68.891H126.072C126.921 68.891 127.61 68.2091 127.61 67.3675C127.61 66.526 126.921 65.8441 126.072 65.8441H97.6321C96.7826 65.8441 96.094 66.526 96.094 67.3675C96.094 68.2091 96.7826 68.891 97.6321 68.891Z" fill="#383838"/>
</g>
<circle cx="193" cy="16" r="16" fill="#707070"/>
<path d="M198.194 22.6033H188.448V20.6697L193.048 15.7673C193.679 15.0772 194.145 14.475 194.444 13.9607C194.75 13.4464 194.903 12.9581 194.903 12.4958C194.903 11.8643 194.744 11.3695 194.425 11.0115C194.105 10.6469 193.65 10.4646 193.057 10.4646C192.419 10.4646 191.915 10.686 191.544 11.1287C191.179 11.5649 190.997 12.141 190.997 12.8572H188.165C188.165 11.9913 188.37 11.2003 188.78 10.4841C189.197 9.76799 189.783 9.20809 190.538 8.80444C191.293 8.39429 192.149 8.18921 193.106 8.18921C194.571 8.18921 195.707 8.54077 196.514 9.2439C197.328 9.94702 197.735 10.9399 197.735 12.2224C197.735 12.9255 197.553 13.6417 197.188 14.3708C196.824 15.1 196.199 15.9496 195.313 16.9197L192.081 20.3279H198.194V22.6033Z" fill="white"/>
<defs>
<clipPath id="clip0">
<rect width="105" height="104" fill="white" transform="translate(52 15)"/>
</clipPath>
</defs>
</svg>
