<svg width="209" height="119" viewBox="0 0 209 119" fill="none" xmlns="http://www.w3.org/2000/svg">
<path d="M159.932 34.1241C159.85 33.8321 159.697 33.565 159.485 33.3469C159.274 33.1287 159.012 32.9664 158.722 32.8745L118.389 20.0863C118.049 19.9782 117.685 19.9715 117.341 20.0669C116.997 20.1623 116.688 20.3557 116.453 20.6234L105.001 33.6674L93.5478 20.6234C93.3127 20.3557 93.0042 20.1623 92.6603 20.0669C92.3164 19.9715 91.952 19.9782 91.6119 20.0863L51.2791 32.8745C50.9888 32.9662 50.7261 33.1285 50.5145 33.3468C50.303 33.5651 50.1494 33.8324 50.0675 34.1247C49.9856 34.4169 49.9781 34.7249 50.0456 35.0208C50.1131 35.3167 50.2535 35.5911 50.4541 35.8194L62.2312 49.2306L50.4541 62.6418C50.2535 62.8701 50.1131 63.1445 50.0456 63.4404C49.9781 63.7363 49.9856 64.0443 50.0675 64.3365C50.1494 64.6288 50.303 64.8961 50.5145 65.1144C50.7261 65.3327 50.9888 65.495 51.2791 65.5867L62.8344 69.2515V98.5566C62.8343 98.9316 62.95 99.2976 63.1658 99.6048C63.3816 99.912 63.6871 100.146 64.0407 100.274L104.374 114.889C104.387 114.888 104.4 114.888 104.414 114.889C104.793 115.025 105.208 115.025 105.587 114.889C105.6 114.889 105.615 114.889 105.628 114.889L124.804 107.947L124.861 108.192C124.934 108.51 125.091 108.803 125.316 109.04C125.541 109.277 125.826 109.45 126.141 109.54C126.456 109.63 126.789 109.635 127.106 109.553C127.423 109.471 127.713 109.307 127.944 109.076L130.537 106.493L138.537 114.465C138.881 114.808 139.347 115 139.833 115C140.32 115 140.786 114.808 141.13 114.465L146.314 109.297C146.658 108.954 146.851 108.49 146.851 108.005C146.851 107.521 146.658 107.056 146.314 106.714L141.483 101.892L145.964 100.274C146.317 100.145 146.622 99.9111 146.837 99.604C147.052 99.2968 147.167 98.9312 147.167 98.5566V69.2515L158.716 65.5867C159.007 65.495 159.269 65.3327 159.481 65.1144C159.693 64.8961 159.846 64.6288 159.928 64.3365C160.01 64.0443 160.017 63.7363 159.95 63.4404C159.882 63.1445 159.742 62.8701 159.541 62.6418L147.77 49.2306L159.547 35.8194C159.747 35.5909 159.888 35.3163 159.955 35.0203C160.022 34.7243 160.014 34.4163 159.932 34.1241ZM105.001 60.1024L70.7176 49.2306L103.167 38.9416V47.4037C103.167 47.8882 103.36 48.3529 103.704 48.6955C104.048 49.0381 104.514 49.2306 105.001 49.2306C105.487 49.2306 105.953 49.0381 106.297 48.6955C106.641 48.3529 106.834 47.8882 106.834 47.4037V38.9416L139.283 49.2306L105.001 60.1024ZM91.5789 23.93L101.778 35.5472L65.2562 47.1279L55.0575 35.5107L91.5789 23.93ZM65.2562 51.3334L101.778 62.914L91.5789 74.5312L55.0575 62.9505L65.2562 51.3334ZM139.833 110.588L131.833 102.616C131.489 102.273 131.023 102.081 130.537 102.081C130.051 102.081 129.584 102.273 129.241 102.616L127.695 104.154L125.226 93.4048L135.983 95.8985L134.431 97.4495C134.087 97.7921 133.894 98.2567 133.894 98.7411C133.894 99.2255 134.087 99.6901 134.431 100.033L142.429 108.003L139.833 110.588ZM143.5 97.2778L138.614 99.0407L138.315 98.7429L140.908 96.1579C141.139 95.9274 141.304 95.6395 141.386 95.3241C141.468 95.0086 141.464 94.6771 141.374 94.3638C141.284 94.0505 141.111 93.7669 140.874 93.5424C140.637 93.3179 140.344 93.1606 140.026 93.0869L123.2 89.1846C122.897 89.1146 122.58 89.1226 122.281 89.208C121.982 89.2933 121.71 89.4532 121.489 89.6725C121.269 89.8918 121.109 90.1634 121.023 90.4616C120.938 90.7598 120.93 91.0748 121 91.3769L123.981 104.361L106.834 110.565V96.7297C106.834 96.2452 106.641 95.7805 106.297 95.4379C105.953 95.0953 105.487 94.9028 105.001 94.9028C104.514 94.9028 104.048 95.0953 103.704 95.4379C103.36 95.7805 103.167 96.2452 103.167 96.7297V110.563L66.501 97.2778V70.4225L91.6174 78.3841C91.7956 78.4377 91.9812 78.4636 92.1674 78.4608C92.4287 78.461 92.6871 78.4056 92.9252 78.2981C93.1633 78.1907 93.3756 78.0337 93.5478 77.8378L103.167 66.8765V82.1146C103.167 82.5991 103.36 83.0638 103.704 83.4064C104.048 83.749 104.514 83.9415 105.001 83.9415C105.487 83.9415 105.953 83.749 106.297 83.4064C106.641 83.0638 106.834 82.5991 106.834 82.1146V66.882L116.453 77.8433C116.626 78.0382 116.838 78.1941 117.077 78.3006C117.315 78.4071 117.573 78.4617 117.834 78.4608C118.02 78.4606 118.206 78.4317 118.384 78.3749L143.5 70.4225V97.2778ZM118.422 74.5312L108.223 62.914L144.745 51.3334L154.944 62.9505L118.422 74.5312ZM144.745 47.1279L108.223 35.5472L118.422 23.93L154.944 35.5107L144.745 47.1279Z" fill="#383838"/>
<path d="M104.999 91.2495C106.012 91.2495 106.832 90.4316 106.832 89.4226C106.832 88.4136 106.012 87.5957 104.999 87.5957C103.987 87.5957 103.166 88.4136 103.166 89.4226C103.166 90.4316 103.987 91.2495 104.999 91.2495Z" fill="#383838"/>
<path d="M104.999 56.5388C106.012 56.5388 106.832 55.7209 106.832 54.7119C106.832 53.7029 106.012 52.885 104.999 52.885C103.987 52.885 103.166 53.7029 103.166 54.7119C103.166 55.7209 103.987 56.5388 104.999 56.5388Z" fill="#383838"/>
<circle cx="193" cy="16" r="16" fill="#707070"/>
<path d="M191.319 14.2439H192.823C193.539 14.2439 194.07 14.0649 194.415 13.7068C194.76 13.3487 194.932 12.8735 194.932 12.281C194.932 11.7081 194.76 11.2621 194.415 10.9431C194.076 10.6241 193.607 10.4646 193.008 10.4646C192.468 10.4646 192.016 10.6143 191.651 10.9138C191.286 11.2068 191.104 11.5909 191.104 12.0662H188.282C188.282 11.324 188.48 10.6599 188.878 10.074C189.281 9.48153 189.841 9.01929 190.557 8.68726C191.28 8.35522 192.074 8.18921 192.94 8.18921C194.444 8.18921 195.622 8.55054 196.475 9.27319C197.328 9.98934 197.755 10.9789 197.755 12.2419C197.755 12.893 197.556 13.4919 197.159 14.0388C196.762 14.5857 196.241 15.0056 195.596 15.2986C196.397 15.585 196.993 16.0147 197.383 16.5876C197.781 17.1606 197.979 17.8376 197.979 18.6189C197.979 19.8819 197.517 20.8943 196.592 21.656C195.675 22.4177 194.457 22.7986 192.94 22.7986C191.521 22.7986 190.359 22.4242 189.454 21.6755C188.555 20.9268 188.106 19.9373 188.106 18.7068H190.928C190.928 19.2406 191.127 19.6768 191.524 20.0154C191.928 20.3539 192.423 20.5232 193.008 20.5232C193.679 20.5232 194.203 20.3474 194.581 19.9958C194.965 19.6378 195.157 19.1658 195.157 18.5798C195.157 17.1606 194.376 16.4509 192.813 16.4509H191.319V14.2439Z" fill="white"/>
</svg>
