<svg width="209" height="119" viewBox="0 0 209 119" fill="none" xmlns="http://www.w3.org/2000/svg">
<path d="M119.539 97.6794H113.185V32.8295C113.185 28.786 109.927 25.508 105.909 25.508H14.8628C10.8446 25.508 7.58711 28.786 7.58711 32.8295V97.6794H1.8021C0.806963 97.6794 0 98.4915 0 99.4929V103.498C0 109.298 4.67256 114 10.4365 114H78.3311C79.3262 114 80.1332 113.188 80.1332 112.187C80.1332 111.185 79.3262 110.373 78.3311 110.373H10.4365C6.66307 110.373 3.6042 107.295 3.6042 103.498V101.306H9.38945H46.0768C46.1407 104.817 48.9963 107.653 52.5 107.653H68.8407C72.3442 107.653 75.1999 104.817 75.2639 101.306H111.383H117.737V103.498C117.737 107.295 114.678 110.373 110.905 110.373H86.7413C85.7461 110.373 84.9392 111.185 84.9392 112.187C84.9392 113.188 85.7461 114 86.7413 114H110.904C116.668 114 121.341 109.298 121.341 103.498V99.4929C121.341 98.4912 120.534 97.6794 119.539 97.6794ZM68.8405 104.026H52.4998C50.9837 104.026 49.7428 102.817 49.6805 101.306H71.6597C71.5974 102.816 70.3567 104.026 68.8405 104.026ZM109.581 97.6794H11.1915V32.8295C11.1915 30.7921 12.8384 29.1349 14.863 29.1349H105.909C107.934 29.1349 109.581 30.7921 109.581 32.8295V97.6794Z" fill="#383838"/>
<path d="M104.653 32.28H34.8397C33.8445 32.28 33.0376 33.092 33.0376 34.0934C33.0376 35.0948 33.8445 35.9069 34.8397 35.9069H102.851V90.9109H17.9174V35.9066H26.4295C27.4246 35.9066 28.2316 35.0946 28.2316 34.0932C28.2316 33.0918 27.4246 32.2797 26.4295 32.2797H16.1153C15.1202 32.2797 14.3132 33.0918 14.3132 34.0932V92.7241C14.3132 93.7255 15.1202 94.5376 16.1153 94.5376H104.653C105.648 94.5376 106.455 93.7255 106.455 92.7241V34.0934C106.455 33.0918 105.648 32.28 104.653 32.28Z" fill="#383838"/>
<path d="M163.662 52.7008C163.978 52.7008 164.234 52.4074 164.234 52.0454C164.234 51.6834 163.978 51.3899 163.662 51.3899C163.346 51.3899 163.09 51.6834 163.09 52.0454C163.09 52.4074 163.346 52.7008 163.662 52.7008Z" fill="#383838"/>
<path d="M176.53 47.9487H150.797C148.826 47.9487 147.222 49.7864 147.222 52.0453V99.7851C147.222 102.044 148.826 103.882 150.797 103.882H176.53C178.501 103.882 180.104 102.044 180.104 99.7851V52.0453C180.104 49.7864 178.501 47.9487 176.53 47.9487ZM178.674 99.7851C178.674 101.141 177.712 102.243 176.53 102.243H150.797C149.614 102.243 148.652 101.141 148.652 99.7851V52.0453C148.652 50.6899 149.614 49.5873 150.797 49.5873H176.53C177.712 49.5873 178.674 50.6899 178.674 52.0453V99.7851Z" fill="#383838"/>
<path d="M166.521 95.6886H160.803C159.62 95.6886 158.658 96.7912 158.658 98.1466C158.658 99.502 159.62 100.605 160.803 100.605H166.521C167.703 100.605 168.665 99.502 168.665 98.1466C168.665 96.7912 167.703 95.6886 166.521 95.6886ZM166.521 98.966H160.803C160.408 98.966 160.088 98.5985 160.088 98.1466C160.088 97.6948 160.408 97.3273 160.803 97.3273H166.521C166.915 97.3273 167.236 97.6948 167.236 98.1466C167.236 98.5985 166.915 98.966 166.521 98.966Z" fill="#383838"/>
<path d="M176.53 51.2264H167.707C167.517 51.2264 167.336 51.3127 167.201 51.4664L165.181 53.7825C164.773 54.2475 164.234 54.5037 163.663 54.5037C163.092 54.5037 162.554 54.248 162.149 53.7835C162.145 53.7795 160.894 52.3481 160.125 51.4664C159.991 51.3127 159.809 51.2264 159.62 51.2264H150.797C150.402 51.2264 150.082 51.5932 150.082 52.0457V70.9996C150.082 71.4521 150.402 71.819 150.797 71.819C151.191 71.819 151.511 71.4521 151.511 70.9996V52.8651H159.324C159.324 52.8651 161.058 54.8521 161.142 54.9386L161.138 54.9428C161.814 55.7163 162.71 56.1424 163.663 56.1424C164.615 56.1424 165.512 55.7168 166.191 54.9425L168.003 52.8651H175.815V92.4115H151.511V74.277C151.511 73.8245 151.191 73.4576 150.797 73.4576C150.402 73.4576 150.082 73.8245 150.082 74.277V93.2309C150.082 93.6834 150.402 94.0502 150.797 94.0502H176.53C176.925 94.0502 177.245 93.6834 177.245 93.2309V52.0457C177.245 51.5932 176.925 51.2264 176.53 51.2264Z" fill="#383838"/>
<path d="M35.829 51.0614C35.5094 51.2521 35.4114 51.6764 35.6101 52.0092L37.8295 55.7249C38.0283 56.0576 38.4485 56.1728 38.7682 55.9821C39.0879 55.7914 39.1859 55.3671 38.9871 55.0343L36.7677 51.3186C36.5689 50.9859 36.1487 50.8707 35.829 51.0614Z" fill="#383838"/>
<path d="M48.1501 54.4387L44.5809 56.568C44.2613 56.7587 44.1633 57.1831 44.362 57.5158C44.5608 57.8486 44.9811 57.9638 45.3007 57.7731L48.8699 55.6438C49.1895 55.4531 49.2875 55.0288 49.0887 54.696C48.89 54.3632 48.4697 54.248 48.1501 54.4387Z" fill="#383838"/>
<path d="M36.524 61.3722L32.9549 63.5014C32.6353 63.6921 32.5373 64.1165 32.736 64.4492C32.9348 64.782 33.3551 64.8972 33.6747 64.7065L37.2439 62.5772C37.5635 62.3865 37.6615 61.9622 37.4627 61.6294C37.2639 61.2966 36.8437 61.1815 36.524 61.3722Z" fill="#383838"/>
<path d="M35.757 57.448L33.024 56.699C32.6575 56.5985 32.291 56.8172 32.2055 57.1873C32.12 57.5574 32.3479 57.939 32.7145 58.0395L35.4475 58.7884C35.6308 58.8387 35.814 58.8091 35.9621 58.7208C36.1103 58.6324 36.2233 58.4852 36.266 58.3001C36.3515 57.93 36.1236 57.5485 35.757 57.448Z" fill="#383838"/>
<path d="M42.9421 50.7837C42.5756 50.6833 42.2091 50.9019 42.1235 51.2721L41.4863 54.0317C41.4008 54.4018 41.6287 54.7833 41.9953 54.8838C42.1786 54.9341 42.3619 54.9045 42.51 54.8161C42.6581 54.7278 42.7712 54.5806 42.8138 54.3955L43.4511 51.6359C43.5366 51.2658 43.3087 50.8843 42.9421 50.7837Z" fill="#383838"/>
<path d="M53.4002 59.1878C53.0094 59.4209 52.7089 59.7494 52.5073 60.1288C51.694 59.3646 50.471 59.1801 49.5018 59.7583C48.8858 60.1258 48.493 60.7298 48.3617 61.398C47.7109 61.1964 46.9924 61.2554 46.3764 61.6228C46.0218 61.8344 45.7416 62.1247 45.542 62.4601L43.054 58.2947C42.3197 57.0654 40.7617 56.6384 39.5809 57.3429C38.4 58.0473 38.0368 59.6205 38.771 60.8498L40.6687 64.0268C40.8674 64.3596 41.2877 64.4747 41.6073 64.284C41.927 64.0933 42.025 63.669 41.8262 63.3362L39.9286 60.1592C39.5912 59.5944 39.7581 58.8716 40.3007 58.5479C40.8432 58.2243 41.559 58.4204 41.8964 58.9852L47.9214 69.0722C48.1202 69.405 48.5404 69.5201 48.8601 69.3294C49.1797 69.1387 49.2777 68.7144 49.079 68.3816L46.7241 64.4392C46.3868 63.8744 46.5537 63.1516 47.0962 62.8279C47.6388 62.5042 48.3546 62.7004 48.692 63.2652L49.0393 63.8467L51.0468 67.2076C51.2456 67.5404 51.6658 67.6556 51.9855 67.4649C52.3051 67.2742 52.4031 66.8498 52.2044 66.5171L50.1969 63.1562L49.8495 62.5747C49.5122 62.0099 49.6791 61.287 50.2216 60.9634C50.7642 60.6397 51.48 60.8359 51.8174 61.4007L52.5903 62.6946L53.2127 63.7367L54.1722 65.3432C54.371 65.6759 54.7912 65.7911 55.1109 65.6004C55.4306 65.4097 55.5286 64.9854 55.3298 64.6526L54.3703 63.0462L53.7478 62.0041C53.4104 61.4393 53.5774 60.7164 54.1199 60.3928C54.6625 60.0691 55.3783 60.2653 55.7157 60.8301L59.4793 67.1311C59.7473 67.5799 59.9769 68.0524 60.1615 68.5356C60.2997 68.8973 60.6956 69.0867 61.0457 68.9588C61.0848 68.9444 61.1216 68.9269 61.1561 68.9063C61.4303 68.7427 61.5522 68.3937 61.4295 68.0724C61.2147 67.5107 60.9481 66.9616 60.6368 66.4404L56.8732 60.1395C56.139 58.9103 54.581 58.4833 53.4002 59.1878Z" fill="#383838"/>
<path d="M61.2895 73.4267C60.9262 73.3135 60.552 73.5188 60.4539 73.8852C59.9001 75.953 58.6011 77.6847 56.7962 78.7615C54.0884 80.3769 50.5981 80.2344 47.9043 78.3985L41.8056 74.2421C41.2556 73.8673 41.0652 73.1244 41.3721 72.5509C41.6895 71.9581 42.4364 71.7448 43.0373 72.0754L46.8468 74.1713C47.1195 74.3214 47.4505 74.2717 47.6567 74.0497C47.8628 73.8278 47.8938 73.4877 47.7325 73.2177L44.2055 67.3128C44.0067 66.98 43.5865 66.8649 43.2668 67.0556C42.9471 67.2463 42.8492 67.6706 43.0479 68.0034L45.2929 71.7618L43.6512 70.8586C42.3736 70.1556 40.8444 70.5923 40.17 71.8526C39.5283 73.0514 39.9264 74.6044 41.0764 75.388L47.175 79.5444C48.7222 80.5988 50.508 81.1957 52.3394 81.2705C54.1708 81.3453 55.9609 80.8943 57.5161 79.9665C59.6151 78.7143 61.1257 76.7003 61.7698 74.2953C61.8679 73.9288 61.653 73.54 61.2895 73.4267Z" fill="#383838"/>
<path d="M61.5651 70.49C61.3905 70.4422 61.2026 70.4668 61.0504 70.5576C60.8982 70.6484 60.7874 70.802 60.7467 70.9783C60.706 71.1546 60.7369 71.347 60.8315 71.5054C60.9266 71.6645 61.081 71.7824 61.2556 71.8303C61.4302 71.8781 61.618 71.8535 61.7702 71.7627C61.9224 71.6719 62.0332 71.5183 62.074 71.342C62.1147 71.1657 62.0841 70.9739 61.9891 70.8149C61.8944 70.6564 61.7397 70.5379 61.5651 70.49Z" fill="#383838"/>
<path d="M42.6274 65.0602C42.4529 65.0124 42.265 65.037 42.1128 65.1278C41.9606 65.2186 41.8498 65.3721 41.8091 65.5484C41.7683 65.7247 41.7993 65.9171 41.8939 66.0756C41.9886 66.2341 42.1434 66.3526 42.318 66.4004C42.4925 66.4483 42.6804 66.4237 42.8326 66.3329C42.9848 66.242 43.0956 66.0885 43.1363 65.9122C43.1771 65.7359 43.1461 65.5435 43.0515 65.385C42.9568 65.2266 42.802 65.1081 42.6274 65.0602Z" fill="#383838"/>
<path d="M155.399 62.0478C155.08 62.2385 154.982 62.6628 155.18 62.9956L157.4 66.7113C157.599 67.044 158.019 67.1593 158.339 66.9686C158.658 66.7779 158.756 66.3535 158.557 66.0207L156.338 62.305C156.139 61.9723 155.719 61.8571 155.399 62.0478Z" fill="#383838"/>
<path d="M167.719 65.4249L164.15 67.5542C163.83 67.7449 163.732 68.1692 163.931 68.502C164.13 68.8348 164.55 68.95 164.87 68.7593L168.439 66.63C168.759 66.4393 168.857 66.015 168.658 65.6822C168.459 65.3494 168.039 65.2342 167.719 65.4249Z" fill="#383838"/>
<path d="M156.093 72.3583L152.524 74.4876C152.204 74.6783 152.106 75.1026 152.305 75.4354C152.504 75.7682 152.924 75.8833 153.244 75.6926L156.813 73.5634C157.132 73.3727 157.23 72.9484 157.032 72.6156C156.833 72.2828 156.413 72.1676 156.093 72.3583Z" fill="#383838"/>
<path d="M155.327 68.4339L152.594 67.6849C152.228 67.5844 151.861 67.8031 151.776 68.1732C151.69 68.5433 151.918 68.9249 152.285 69.0254L155.018 69.7744C155.201 69.8246 155.384 69.795 155.532 69.7067C155.68 69.6183 155.793 69.4711 155.836 69.2861C155.922 68.9159 155.694 68.5344 155.327 68.4339Z" fill="#383838"/>
<path d="M162.513 61.7702C162.146 61.6697 161.78 61.8883 161.694 62.2585L161.057 65.0181C160.972 65.3882 161.199 65.7698 161.566 65.8703C161.749 65.9205 161.933 65.8909 162.081 65.8026C162.229 65.7142 162.342 65.567 162.385 65.3819L163.022 62.6223C163.107 62.2522 162.879 61.8707 162.513 61.7702Z" fill="#383838"/>
<path d="M172.97 70.1744C172.579 70.4075 172.278 70.7361 172.077 71.1155C171.264 70.3513 170.041 70.1668 169.071 70.745C168.455 71.1125 168.063 71.7165 167.931 72.3846C167.28 72.183 166.562 72.2421 165.946 72.6095C165.591 72.8211 165.311 73.1113 165.112 73.4467L162.623 69.2813C161.889 68.052 160.331 67.625 159.15 68.3294C157.97 69.0339 157.606 70.6071 158.341 71.8364L160.238 75.0134C160.437 75.3462 160.857 75.4614 161.177 75.2707C161.497 75.08 161.595 74.6557 161.396 74.3229L159.498 71.1458C159.161 70.581 159.328 69.8582 159.87 69.5345C160.413 69.2109 161.129 69.407 161.466 69.9719L167.491 80.0589C167.69 80.3917 168.11 80.5069 168.43 80.3162C168.749 80.1255 168.847 79.7011 168.649 79.3684L166.294 75.4259C165.956 74.8611 166.123 74.1383 166.666 73.8146C167.208 73.4909 167.924 73.6871 168.262 74.2519L168.609 74.8335L170.616 78.1944C170.815 78.5272 171.235 78.6423 171.555 78.4516C171.875 78.2609 171.973 77.8366 171.774 77.5038L169.766 74.1429L169.419 73.5614C169.082 72.9965 169.249 72.2737 169.791 71.9501C170.334 71.6264 171.05 71.8226 171.387 72.3874L172.16 73.6814L172.782 74.7235L173.742 76.3299C173.941 76.6627 174.361 76.7779 174.681 76.5871C175 76.3964 175.098 75.9721 174.899 75.6393L173.94 74.0329L173.317 72.9908C172.98 72.426 173.147 71.7031 173.689 71.3795C174.232 71.0558 174.948 71.252 175.285 71.8168L179.049 78.1178C179.317 78.5667 179.547 79.0392 179.731 79.5224C179.869 79.8841 180.265 80.0735 180.615 79.9456C180.654 79.9313 180.691 79.9137 180.726 79.8931C181 79.7295 181.122 79.3805 180.999 79.0592C180.784 78.4975 180.518 77.9484 180.206 77.4272L176.443 71.1262C175.709 69.897 174.151 69.47 172.97 70.1744Z" fill="#383838"/>
<path d="M180.859 84.4136C180.496 84.3004 180.122 84.5057 180.024 84.8721C179.47 86.9399 178.171 88.6716 176.366 89.7484C173.658 91.3638 170.168 91.2213 167.474 89.3853L161.375 85.2289C160.825 84.854 160.635 84.1111 160.942 83.5377C161.259 82.9448 162.006 82.7316 162.607 83.0622L166.417 85.1581C166.689 85.3082 167.02 85.2585 167.226 85.0365C167.433 84.8146 167.464 84.4745 167.302 84.2045L163.775 78.2995C163.576 77.9667 163.156 77.8516 162.836 78.0423C162.517 78.233 162.419 78.6573 162.618 78.9901L164.863 82.7486L163.221 81.8454C161.943 81.1424 160.414 81.579 159.74 82.8393C159.098 84.0381 159.496 85.5912 160.646 86.3748L166.745 90.5312C168.292 91.5857 170.078 92.1826 171.909 92.2574C173.741 92.3322 175.531 91.8813 177.086 90.9534C179.185 89.7012 180.696 87.6872 181.34 85.2822C181.438 84.9157 181.223 84.5269 180.859 84.4136Z" fill="#383838"/>
<path d="M181.134 81.4769C180.959 81.429 180.772 81.4536 180.619 81.5444C180.467 81.6353 180.356 81.7888 180.316 81.9651C180.275 82.1414 180.306 82.3338 180.401 82.4923C180.496 82.6513 180.65 82.7693 180.825 82.8171C180.999 82.865 181.187 82.8403 181.339 82.7495C181.491 82.6587 181.602 82.5052 181.643 82.3289C181.684 82.1526 181.653 81.9608 181.558 81.8017C181.463 81.6432 181.309 81.5247 181.134 81.4769Z" fill="#383838"/>
<path d="M162.196 76.0468C162.021 75.9989 161.834 76.0235 161.681 76.1143C161.529 76.2051 161.418 76.3587 161.378 76.535C161.337 76.7113 161.368 76.9037 161.462 77.0622C161.557 77.2206 161.712 77.3391 161.886 77.387C162.061 77.4348 162.249 77.4102 162.401 77.3194C162.553 77.2286 162.664 77.0751 162.705 76.8988C162.746 76.7225 162.715 76.5301 162.62 76.3716C162.525 76.2131 162.371 76.0946 162.196 76.0468Z" fill="#383838"/>
<ellipse cx="193.057" cy="20.9809" rx="15.9426" ry="15.9809" fill="#707070"/>
<path d="M195.36 27.5978H192.538V16.7189L189.169 17.7638V15.4689L195.057 13.3595H195.36V27.5978Z" fill="white"/>
</svg>
