<svg width="209" height="119" viewBox="0 0 209 119" fill="none" xmlns="http://www.w3.org/2000/svg">
<g clip-path="url(#clip0)">
<path d="M116.875 27.8409V27.8161L135.4 36.1135L154 29.1402L104.5 10.5777L55.0001 29.1402L104.5 47.7027L123.025 40.7542L104.5 33.1188V33.1002L116.875 27.8409Z" fill="#383838"/>
<path d="M55.0001 35.3286V91.0161L101.406 108.422V52.734L55.0001 35.3286ZM79.7501 91.2203L67.3751 86.5796V79.9776L79.7501 84.6182V91.2203Z" fill="#383838"/>
<path d="M135.438 42.2895V57.7892L123.063 62.4298V46.9301L107.594 52.734V108.422L154 91.0161V35.3286L135.438 42.2895Z" fill="#383838"/>
</g>
<circle cx="193" cy="16" r="16" fill="#707070"/>
<path d="M196.798 17.2517H198.409V19.5271H196.798V22.6033H193.975V19.5271H188.145L188.018 17.7498L193.946 8.38452H196.798V17.2517ZM190.831 17.2517H193.975V12.2322L193.79 12.5544L190.831 17.2517Z" fill="white"/>
<defs>
<clipPath id="clip0">
<rect width="99" height="99" fill="white" transform="translate(55 10)"/>
</clipPath>
</defs>
</svg>
