<svg width="218" height="126" viewBox="0 0 218 126" fill="none" xmlns="http://www.w3.org/2000/svg">
<g clip-path="url(#clip0)">
<path d="M154.725 30.7254C149.708 25.7082 141.543 25.7076 136.525 30.7254C131.508 35.7432 131.508 43.9082 136.525 48.9254C141.543 53.9426 149.708 53.9432 154.725 48.9254C159.743 43.9076 159.743 35.7426 154.725 30.7254ZM139.125 46.3254C135.541 42.7415 135.541 36.9093 139.125 33.3254C142.709 29.7415 148.541 29.7415 152.125 33.3254C155.709 36.9093 155.709 42.7415 152.125 46.3254C148.541 49.9093 142.709 49.9093 139.125 46.3254Z" fill="black"/>
<path d="M111.825 84.0254C116.4 88.6002 123.585 88.9899 128.621 85.2216L130.675 87.2754C139.636 96.2358 154.215 96.2358 163.175 87.2754C172.136 78.3151 172.136 63.7358 163.175 54.7754L160.464 52.0637L163.825 52.0637L163.825 48.3871L156.025 48.3871C155.518 48.3871 155.058 48.5928 154.725 48.9254C154.393 49.258 154.187 49.7176 154.187 50.2254L154.187 58.0254L157.864 58.0254L157.864 54.6637L160.575 57.3754C168.102 64.9025 168.102 77.149 160.575 84.6754C153.049 92.2018 140.802 92.2025 133.275 84.6754L131.221 82.6216C134.99 77.5848 134.6 70.4002 130.025 65.8254C125.008 60.8082 116.843 60.8076 111.825 65.8254C106.808 70.8432 106.808 79.0082 111.825 84.0254V84.0254ZM127.425 68.4254C131.009 72.0093 131.009 77.8415 127.425 81.4254C123.841 85.0093 118.009 85.0093 114.425 81.4254C110.841 77.8415 110.841 72.0093 114.425 68.4254C118.009 64.8415 123.841 64.8415 127.425 68.4254Z" fill="black"/>
<path d="M55.2753 39.1753C46.315 48.1357 46.315 62.715 55.2753 71.6753L62.5291 78.9291C58.7607 83.9659 59.1506 91.1506 63.7253 95.7253C68.7425 100.743 76.9075 100.743 81.9253 95.7253C86.9431 90.7075 86.9425 82.5425 81.9253 77.5253C77.3506 72.9506 70.1659 72.5607 65.1291 76.3291L57.8753 69.0753C50.3483 61.5483 50.3489 49.3017 57.8753 41.7753C65.4017 34.2489 77.6483 34.2482 85.1753 41.7753L106.087 62.687L102.725 62.687L102.725 66.3636L110.525 66.3636C111.033 66.3636 111.493 66.1579 111.825 65.8253C112.158 65.4927 112.364 65.0331 112.364 64.5253L112.364 56.7253L108.687 56.7253L108.687 60.087L87.7753 39.1753C78.815 30.2149 64.2357 30.2149 55.2753 39.1753V39.1753ZM79.3253 80.1253C82.9092 83.7092 82.9092 89.5414 79.3253 93.1253C75.7414 96.7092 69.9092 96.7092 66.3253 93.1253C62.7414 89.5414 62.7414 83.7092 66.3253 80.1253C69.9092 76.5414 75.7414 76.5414 79.3253 80.1253Z" fill="black"/>
<circle cx="202" cy="16" r="16" fill="#707070"/>
<path d="M200.319 14.2439H201.823C202.539 14.2439 203.07 14.0649 203.415 13.7068C203.76 13.3487 203.932 12.8735 203.932 12.281C203.932 11.7081 203.76 11.2621 203.415 10.9431C203.076 10.6241 202.607 10.4646 202.008 10.4646C201.468 10.4646 201.016 10.6143 200.651 10.9138C200.286 11.2068 200.104 11.5909 200.104 12.0662H197.282C197.282 11.324 197.48 10.6599 197.878 10.074C198.281 9.48153 198.841 9.01929 199.557 8.68726C200.28 8.35522 201.074 8.18921 201.94 8.18921C203.444 8.18921 204.622 8.55054 205.475 9.27319C206.328 9.98934 206.755 10.9789 206.755 12.2419C206.755 12.893 206.556 13.4919 206.159 14.0388C205.762 14.5857 205.241 15.0056 204.596 15.2986C205.397 15.585 205.993 16.0147 206.383 16.5876C206.781 17.1606 206.979 17.8376 206.979 18.6189C206.979 19.8819 206.517 20.8943 205.592 21.656C204.675 22.4177 203.457 22.7986 201.94 22.7986C200.521 22.7986 199.359 22.4242 198.454 21.6755C197.555 20.9268 197.106 19.9373 197.106 18.7068H199.928C199.928 19.2406 200.127 19.6768 200.524 20.0154C200.928 20.3539 201.423 20.5232 202.008 20.5232C202.679 20.5232 203.203 20.3474 203.581 19.9958C203.965 19.6378 204.157 19.1658 204.157 18.5798C204.157 17.1606 203.376 16.4509 201.813 16.4509H200.319V14.2439Z" fill="white"/>
</g>
<defs>
<clipPath id="clip0">
<rect width="218" height="126" fill="white"/>
</clipPath>
</defs>
</svg>
