<svg width="218" height="126" viewBox="0 0 218 126" fill="none" xmlns="http://www.w3.org/2000/svg">
<path d="M159.053 34.1763L110.053 7.27005C109.397 6.91031 108.603 6.91031 107.947 7.27005L58.9473 34.1763C58.2475 34.5608 57.8125 35.2957 57.8125 36.0938V53.5818C57.8125 54.7901 58.7918 55.7693 60 55.7693C61.2083 55.7693 62.1875 54.7901 62.1875 53.5818V39.7903L76.8438 47.8388V63.3461C76.8438 64.1433 77.2779 64.8773 77.9768 65.2619L88.4768 71.0416C88.805 71.2219 89.1681 71.3125 89.5313 71.3125C89.9167 71.3125 90.3012 71.2108 90.6447 71.0083C91.3103 70.6144 91.7188 69.8983 91.7188 69.125V56.006L106.813 64.2946V113.116L62.1875 88.6117V72.3943C62.1875 71.1861 61.2083 70.2068 60 70.2068C58.7918 70.2068 57.8125 71.1861 57.8125 72.3943V89.9063C57.8125 90.7044 58.2475 91.4392 58.9473 91.8237L107.947 118.73C108.275 118.91 108.638 119 109 119C109.362 119 109.725 118.91 110.053 118.73L159.053 91.8237C159.753 91.4392 160.188 90.7052 160.188 89.9063V36.0938C160.188 35.2957 159.753 34.5608 159.053 34.1763ZM109 60.5049L94.0849 52.3146L138.541 27.9043L153.455 36.0938L109 60.5049ZM133.996 25.4084L89.5407 49.8195L83.4969 46.5006L127.952 22.0895L133.996 25.4084ZM109 11.6835L123.407 19.5944L78.9518 44.0047L64.5451 36.0938L109 11.6835ZM81.2188 62.0532V50.2407L87.3438 53.604V65.4242L81.2188 62.0532ZM147.938 92.9363V73.9375C147.938 72.7293 146.958 71.75 145.75 71.75C144.542 71.75 143.563 72.7293 143.563 73.9375V95.3383L111.188 113.116V64.2946L155.813 39.7903V88.6117L147.938 92.9363Z" fill="black"/>
<path d="M60 65.1763C60.5751 65.1763 61.1399 64.9421 61.5467 64.5354C61.9534 64.1261 62.1875 63.5638 62.1875 62.9871C62.1875 62.4111 61.9534 61.8472 61.5467 61.4404C61.1399 61.0328 60.5751 60.7996 60 60.7996C59.425 60.7996 58.8601 61.0328 58.4534 61.4404C58.0467 61.8472 57.8125 62.4111 57.8125 62.9871C57.8125 63.5638 58.0467 64.1261 58.4534 64.5354C58.8601 64.9421 59.425 65.1763 60 65.1763Z" fill="black"/>
<path d="M145.75 63.9714C145.175 63.9714 144.61 64.2056 144.203 64.6123C143.797 65.0216 143.562 65.583 143.562 66.1589C143.562 66.7366 143.797 67.2988 144.203 67.7073C144.61 68.114 145.175 68.3481 145.75 68.3481C146.325 68.3481 146.89 68.114 147.297 67.7073C147.703 67.2988 147.937 66.7366 147.937 66.1589C147.937 65.583 147.703 65.0216 147.297 64.6123C146.89 64.2056 146.325 63.9714 145.75 63.9714Z" fill="black"/>
<path d="M91.7386 79.4124C91.1731 78.0578 89.6166 77.4184 88.2618 77.9836L83.9085 79.8006L79.7766 73.2415C78.9941 71.9993 77.3531 71.6272 76.1108 72.4093C74.8688 73.1917 74.4962 74.8329 75.2786 76.075L78.9339 81.8776L75.6347 83.2547C74.2801 83.8202 73.6404 85.3769 74.2058 86.7315C74.6316 87.7516 75.6195 88.3664 76.6598 88.3664C77.001 88.3664 77.3481 88.3001 77.6826 88.1604L81.8071 86.4385L85.9904 93.0794C86.4958 93.8816 87.359 94.3211 88.242 94.3211C88.7261 94.3211 89.2162 94.1888 89.6561 93.9118C90.8982 93.1294 91.2708 91.4881 90.4884 90.246L86.7817 84.3619L90.3093 82.8892C91.6643 82.3236 92.3041 80.7669 91.7386 79.4124Z" fill="black"/>
<circle cx="202" cy="16" r="16" fill="#707070"/>
<path d="M207.194 22.6033H197.448V20.6697L202.048 15.7673C202.679 15.0772 203.145 14.475 203.444 13.9607C203.75 13.4464 203.903 12.9581 203.903 12.4958C203.903 11.8643 203.744 11.3695 203.425 11.0115C203.105 10.6469 202.65 10.4646 202.057 10.4646C201.419 10.4646 200.915 10.686 200.544 11.1287C200.179 11.5649 199.997 12.141 199.997 12.8572H197.165C197.165 11.9913 197.37 11.2003 197.78 10.4841C198.197 9.76799 198.783 9.20809 199.538 8.80444C200.293 8.39429 201.149 8.18921 202.106 8.18921C203.571 8.18921 204.707 8.54077 205.514 9.2439C206.328 9.94702 206.735 10.9399 206.735 12.2224C206.735 12.9255 206.553 13.6417 206.188 14.3708C205.824 15.1 205.199 15.9496 204.313 16.9197L201.081 20.3279H207.194V22.6033Z" fill="white"/>
</svg>
