<svg width="218" height="126" viewBox="0 0 218 126" fill="none" xmlns="http://www.w3.org/2000/svg">
<circle cx="202" cy="16" r="16" fill="#707070"/>
<path d="M204.303 22.6033H201.481V11.7244L198.112 12.7693V10.4744L204.001 8.36499H204.303V22.6033Z" fill="white"/>
<path d="M163.692 54.1861H157.641C157.297 52.9384 156.555 51.8369 155.529 51.048C154.503 50.2591 153.247 49.8259 151.953 49.8137H145.494V34.0183C145.501 33.7229 145.43 33.4308 145.287 33.172C145.144 32.9132 144.935 32.6971 144.681 32.5458L99.1159 6.2279C98.8591 6.07863 98.5673 6 98.2703 6C97.9733 6 97.6815 6.07863 97.4247 6.2279L51.8454 32.5458C51.5875 32.6953 51.3735 32.9101 51.2251 33.1687C51.0767 33.4272 50.9991 33.7203 51 34.0183V86.6544C51 86.9529 51.0786 87.2461 51.2278 87.5046C51.3771 87.7631 51.5917 87.9777 51.8502 88.1269L97.4342 114.445C97.6927 114.594 97.9859 114.673 98.2844 114.673C98.5906 114.673 98.8917 114.594 99.1589 114.445L123.146 100.609V110.611C123.143 111.563 123.33 112.506 123.694 113.386C124.059 114.266 124.594 115.065 125.27 115.736C125.945 116.407 126.747 116.938 127.628 117.297C128.51 117.657 129.455 117.838 130.407 117.83H163.692C164.647 117.839 165.594 117.659 166.479 117.3C167.364 116.942 168.169 116.412 168.848 115.741C169.527 115.07 170.067 114.271 170.436 113.391C170.806 112.51 170.997 111.566 171 110.611V61.5178C170.999 59.5778 170.229 57.7172 168.86 56.3432C167.49 54.9692 165.632 54.1936 163.692 54.1861ZM152.014 53.2145C152.668 53.2145 153.296 53.4745 153.759 53.9374C154.222 54.4003 154.482 55.0281 154.482 55.6827V55.8474C154.482 56.502 154.222 57.1299 153.759 57.5927C153.296 58.0556 152.668 58.3157 152.014 58.3157H142.132C141.478 58.3157 140.85 58.0556 140.387 57.5927C139.924 57.1299 139.664 56.502 139.664 55.8474V55.6827C139.664 55.0281 139.924 54.4003 140.387 53.9374C140.85 53.4745 141.478 53.2145 142.132 53.2145H152.014ZM98.2844 9.66393L117.225 20.5995L75.0452 44.9522L56.1044 34.0166L98.2844 9.66393ZM96.668 110.027L54.4008 85.6725V36.9598L96.668 61.3142V110.027ZM98.2844 58.3691L78.446 46.9154L120.626 22.563L140.466 34.0166L98.2844 58.3691ZM123.146 61.5178V96.6824L100.069 110.027V61.3142L142.093 36.9598V49.8137H142.146C140.851 49.8258 139.596 50.2591 138.57 51.048C137.544 51.8368 136.802 52.9384 136.458 54.1861H130.407C128.472 54.1955 126.62 54.9732 125.258 56.3482C123.896 57.7231 123.136 59.5827 123.146 61.5178ZM167.599 110.611C167.597 111.119 167.494 111.622 167.295 112.09C167.097 112.558 166.808 112.982 166.444 113.337C166.081 113.692 165.65 113.972 165.178 114.159C164.705 114.347 164.2 114.438 163.692 114.429H130.407C129.901 114.438 129.399 114.345 128.929 114.157C128.46 113.968 128.033 113.688 127.673 113.332C127.314 112.977 127.029 112.553 126.835 112.085C126.642 111.618 126.544 111.117 126.547 110.611V61.5178C126.541 61.0061 126.637 60.4984 126.829 60.0238C127.02 59.5492 127.303 59.1169 127.661 58.7518C128.02 58.3867 128.447 58.0959 128.918 57.896C129.389 57.6961 129.895 57.5911 130.407 57.5869H136.524C136.888 58.7906 137.633 59.8435 138.647 60.5881C139.661 61.3326 140.888 61.7285 142.146 61.7165H151.953C153.211 61.7285 154.438 61.3326 155.452 60.5881C156.465 59.8436 157.21 58.7906 157.575 57.5869H163.692C164.73 57.5935 165.724 58.0105 166.456 58.7469C167.188 59.4834 167.599 60.4795 167.599 61.5178V110.611Z" fill="black"/>
<path d="M132.364 78.7206H134.144C134.595 78.7206 135.027 78.5414 135.346 78.2226C135.665 77.9037 135.844 77.4712 135.844 77.0202C135.844 76.5692 135.665 76.1367 135.346 75.8178C135.027 75.4989 134.595 75.3198 134.144 75.3198H134.077V70.7044H138.767C138.874 71.0463 139.09 71.3437 139.382 71.5511C139.674 71.7586 140.026 71.8645 140.384 71.8527C140.835 71.8539 141.269 71.676 141.589 71.3579C141.91 71.0399 142.091 70.6077 142.093 70.1561V69.012C142.089 68.5583 141.907 68.1244 141.585 67.8045C141.263 67.4847 140.828 67.3047 140.374 67.3036H132.364C132.141 67.3047 131.92 67.3499 131.715 67.4364C131.509 67.5229 131.323 67.6491 131.166 67.8078C131.009 67.9664 130.885 68.1545 130.801 68.3611C130.717 68.5678 130.675 68.7889 130.676 69.012V77.0221C130.675 77.2447 130.717 77.4653 130.802 77.6713C130.886 77.8773 131.01 78.0646 131.167 78.2224C131.324 78.3803 131.51 78.5055 131.716 78.591C131.921 78.6765 132.142 78.7206 132.364 78.7206Z" fill="black"/>
<path d="M132.377 94.2671H140.393C140.844 94.2671 141.276 94.088 141.595 93.7691C141.914 93.4502 142.093 93.0177 142.093 92.5667V84.5505C142.093 84.0995 141.914 83.667 141.595 83.3481C141.276 83.0292 140.844 82.8501 140.393 82.8501H132.377C131.926 82.8501 131.493 83.0292 131.174 83.3481C130.855 83.667 130.676 84.0995 130.676 84.5505V92.5667C130.676 93.0177 130.855 93.4502 131.174 93.7691C131.493 94.088 131.926 94.2671 132.377 94.2671ZM134.077 86.2509H138.692V90.8663H134.077V86.2509Z" fill="black"/>
<path d="M134.144 106.413H134.077V101.798H138.675C138.684 102.245 138.868 102.671 139.187 102.984C139.506 103.297 139.935 103.473 140.382 103.473C140.83 103.474 141.259 103.299 141.579 102.986C141.899 102.674 142.083 102.248 142.093 101.801V100.162C142.091 99.7028 141.911 99.2617 141.591 98.9323C141.27 98.6028 140.834 98.4108 140.374 98.3967H132.364C131.908 98.4121 131.476 98.6054 131.16 98.9355C130.845 99.2655 130.671 99.7059 130.676 100.162V108.173C130.676 108.392 130.72 108.61 130.805 108.812C130.89 109.014 131.016 109.197 131.173 109.35C131.33 109.503 131.517 109.623 131.722 109.703C131.926 109.782 132.145 109.82 132.364 109.814H134.144C134.595 109.814 135.028 109.635 135.347 109.316C135.665 108.997 135.845 108.564 135.845 108.113C135.845 107.662 135.665 107.23 135.347 106.911C135.028 106.592 134.595 106.413 134.144 106.413Z" fill="black"/>
<path d="M144.289 69.3906L139.31 74.3704L137.795 72.8553C137.637 72.6974 137.449 72.5722 137.243 72.4867C137.037 72.4013 136.816 72.3573 136.592 72.3573C136.369 72.3573 136.148 72.4013 135.942 72.4867C135.735 72.5722 135.548 72.6974 135.39 72.8553C135.232 73.0132 135.107 73.2007 135.021 73.407C134.936 73.6133 134.892 73.8345 134.892 74.0578C134.892 74.2811 134.936 74.5022 135.021 74.7085C135.107 74.9148 135.232 75.1023 135.39 75.2602L138.107 77.9774C138.265 78.1354 138.453 78.2606 138.659 78.3461C138.865 78.4316 139.086 78.4755 139.31 78.4755C139.533 78.4755 139.754 78.4316 139.961 78.3461C140.167 78.2606 140.354 78.1354 140.512 77.9774L146.695 71.7948C147.014 71.4759 147.193 71.0433 147.193 70.5923C147.193 70.1413 147.014 69.7088 146.695 69.3899C146.376 69.071 145.943 68.8918 145.492 68.8918C145.041 68.8918 144.609 69.071 144.29 69.3899L144.289 69.3906Z" fill="black"/>
<path d="M144.289 100.787L139.31 105.767L137.795 104.252C137.637 104.094 137.449 103.969 137.243 103.883C137.037 103.798 136.816 103.754 136.592 103.754C136.369 103.754 136.148 103.798 135.942 103.883C135.735 103.969 135.548 104.094 135.39 104.252C135.232 104.41 135.107 104.597 135.021 104.804C134.936 105.01 134.892 105.231 134.892 105.454C134.892 105.678 134.936 105.899 135.021 106.105C135.107 106.311 135.232 106.499 135.39 106.657L138.107 109.374C138.265 109.532 138.453 109.657 138.659 109.743C138.865 109.828 139.086 109.872 139.31 109.872C139.533 109.872 139.754 109.828 139.961 109.743C140.167 109.657 140.354 109.532 140.512 109.374L146.695 103.191C147.014 102.872 147.193 102.44 147.193 101.989C147.193 101.538 147.014 101.105 146.695 100.786C146.376 100.467 145.943 100.288 145.492 100.288C145.041 100.288 144.609 100.467 144.29 100.786L144.289 100.787Z" fill="black"/>
<path d="M161.735 71.4331H151.055C150.604 71.4331 150.171 71.6123 149.852 71.9311C149.533 72.25 149.354 72.6825 149.354 73.1335C149.354 73.5845 149.533 74.017 149.852 74.3359C150.171 74.6548 150.604 74.8339 151.055 74.8339H161.735C162.185 74.8339 162.618 74.6548 162.937 74.3359C163.256 74.017 163.435 73.5845 163.435 73.1335C163.435 72.6825 163.256 72.25 162.937 71.9311C162.618 71.6123 162.185 71.4331 161.735 71.4331Z" fill="black"/>
<path d="M161.735 86.9796H151.055C150.604 86.9796 150.171 87.1588 149.852 87.4777C149.533 87.7965 149.354 88.229 149.354 88.68C149.354 89.131 149.533 89.5635 149.852 89.8824C150.171 90.2013 150.604 90.3804 151.055 90.3804H161.735C162.185 90.3804 162.618 90.2013 162.937 89.8824C163.256 89.5635 163.435 89.131 163.435 88.68C163.435 88.229 163.256 87.7965 162.937 87.4777C162.618 87.1588 162.185 86.9796 161.735 86.9796Z" fill="black"/>
<path d="M161.735 102.526H151.055C150.604 102.526 150.171 102.705 149.852 103.024C149.533 103.343 149.354 103.776 149.354 104.227C149.354 104.678 149.533 105.11 149.852 105.429C150.171 105.748 150.604 105.927 151.055 105.927H161.735C162.185 105.927 162.618 105.748 162.937 105.429C163.256 105.11 163.435 104.678 163.435 104.227C163.435 103.776 163.256 103.343 162.937 103.024C162.618 102.705 162.185 102.526 161.735 102.526Z" fill="black"/>
</svg>
