<svg width="274" height="73" viewBox="0 0 274 73" fill="none" xmlns="http://www.w3.org/2000/svg">
<path d="M256.742 7.26973e-05H17.2682C16.604 7.26973e-05 15.9479 7.26972e-05 15.2855 0.0037227C14.731 0.0073727 14.181 0.0179759 13.6212 0.0269002C12.4051 0.041321 11.1918 0.149132 9.99196 0.349396C8.79379 0.55402 7.63315 0.939794 6.5493 1.49367C5.46677 2.05223 4.47764 2.77803 3.61778 3.64473C2.7534 4.50898 2.03288 5.50795 1.48392 6.60321C0.933436 7.6963 0.551731 8.86763 0.351985 10.0768C0.15034 11.2844 0.0418332 12.5059 0.027438 13.7304C0.0106311 14.29 0.00885623 14.8514 0 15.411V57.5945C0.00885623 58.1612 0.0106311 58.7101 0.027438 59.277C0.0418376 60.5014 0.150345 61.7229 0.351985 62.9304C0.55118 64.1403 0.932907 65.3123 1.48392 66.4058C2.03263 67.4975 2.75326 68.4924 3.61778 69.3519C4.47438 70.2224 5.46415 70.9487 6.5493 71.503C7.63314 72.0584 8.79365 72.4464 9.99196 72.6542C11.192 72.8529 12.4052 72.9607 13.6212 72.9769C14.181 72.9893 14.731 72.9964 15.2855 72.9964C15.9479 73.0001 16.6041 73.0001 17.2682 73.0001H256.742C257.392 73.0001 258.054 73.0001 258.705 72.9964C259.257 72.9964 259.823 72.9893 260.374 72.9769C261.588 72.9616 262.799 72.8537 263.997 72.6542C265.199 72.445 266.363 72.057 267.453 71.503C268.537 70.9484 269.526 70.2221 270.381 69.3519C271.244 68.4891 271.966 67.4949 272.521 66.4058C273.068 65.3115 273.446 64.1396 273.643 62.9304C273.845 61.7227 273.957 60.5015 273.979 59.277C273.986 58.7101 273.986 58.1612 273.986 57.5945C274 56.9315 274 56.2721 274 55.5983V17.4035C274 16.7352 274 16.0722 273.986 15.411C273.986 14.8514 273.986 14.29 273.979 13.7303C273.957 12.5057 273.845 11.2845 273.643 10.0767C273.446 8.86826 273.068 7.69702 272.521 6.60314C271.403 4.40784 269.631 2.62088 267.453 1.49358C266.364 0.941056 265.199 0.555384 263.997 0.349305C262.799 0.148158 261.588 0.0403099 260.374 0.0267177C259.823 0.0178117 259.257 0.0071172 258.705 0.00355845C258.054 -9.15527e-05 257.393 -9.15527e-05 256.742 -9.15527e-05L256.742 7.26973e-05Z" fill="black"/>
<path d="M15.2943 71.4031C14.7425 71.4031 14.2041 71.396 13.6566 71.3836C12.5225 71.3687 11.391 71.2692 10.2714 71.0859C9.22748 70.9048 8.2162 70.5678 7.27091 70.086C6.33429 69.6083 5.48002 68.9818 4.74082 68.2307C3.99092 67.4885 3.36659 66.6275 2.89258 65.6821C2.41335 64.7305 2.08169 63.7106 1.90916 62.6577C1.72284 61.5264 1.62204 60.3825 1.60761 59.2359C1.59613 58.851 1.5811 57.5695 1.5811 57.5695V15.4109C1.5811 15.4109 1.59711 14.1491 1.60771 13.7784C1.62152 12.6335 1.72174 11.4914 1.9075 10.3619C2.08034 9.30613 2.41226 8.28322 2.89175 7.32853C3.36402 6.38375 3.98488 5.5222 4.73026 4.77727C5.4748 4.02526 6.33181 3.39561 7.27002 2.91126C8.21314 2.43107 9.22251 2.09644 10.2643 1.91857C11.3876 1.73345 12.523 1.63337 13.661 1.61916L15.2952 1.59688H258.696L260.35 1.62006C261.477 1.63356 262.603 1.73275 263.715 1.91678C264.768 2.09688 265.788 2.43385 266.742 2.91661C268.621 3.8927 270.151 5.43698 271.115 7.33298C271.587 8.28108 271.914 9.29565 272.085 10.3423C272.273 11.4811 272.378 12.6322 272.399 13.7864C272.405 14.3033 272.405 14.8584 272.405 15.4109C272.419 16.0953 272.419 16.7467 272.419 17.4034V55.5983C272.419 56.2613 272.419 56.9083 272.405 57.5605C272.405 58.154 272.405 58.6977 272.398 59.2572C272.376 60.3909 272.273 61.5214 272.088 62.6398C271.919 63.7003 271.589 64.7282 271.11 65.6876C270.633 66.6228 270.012 67.4762 269.271 68.2165C268.531 68.9716 267.675 69.6018 266.736 70.0826C265.785 70.568 264.767 70.9062 263.715 71.0859C262.596 71.2702 261.464 71.3697 260.33 71.3836C259.8 71.396 259.244 71.4031 258.705 71.4031L256.742 71.4068L15.2943 71.4031Z" fill="black"/>
<path d="M44.8587 37.0488C44.8781 35.5255 45.2797 34.032 46.0259 32.7071C46.7721 31.3822 47.8388 30.2691 49.1266 29.4712C48.3085 28.2938 47.2292 27.3249 45.9744 26.6413C44.7196 25.9577 43.324 25.5784 41.8983 25.5335C38.857 25.2118 35.9086 27.3673 34.3589 27.3673C32.7791 27.3673 30.393 25.5654 27.8236 25.6187C26.1616 25.6728 24.5418 26.1598 23.1221 27.0323C21.7025 27.9047 20.5313 29.1329 19.7227 30.597C16.22 36.7079 18.8327 45.6888 22.1879 50.6284C23.8666 53.0472 25.8286 55.749 28.3957 55.6532C30.9078 55.5482 31.846 54.039 34.8783 54.039C37.8825 54.039 38.7627 55.6532 41.3819 55.5923C44.0775 55.5482 45.7759 53.1627 47.3957 50.7211C48.6018 48.9976 49.5299 47.0928 50.1457 45.0772C48.5796 44.4098 47.2432 43.2926 46.303 41.8649C45.3628 40.4372 44.8605 38.7622 44.8587 37.0488Z" fill="white"/>
<path d="M39.9114 22.2849C41.3812 20.507 42.1053 18.2217 41.9299 15.9145C39.6845 16.1522 37.6103 17.2336 36.1207 18.9433C35.3924 19.7785 34.8346 20.7502 34.4792 21.8028C34.1238 22.8554 33.9777 23.9683 34.0494 25.0778C35.1725 25.0895 36.2836 24.8442 37.299 24.3604C38.3144 23.8766 39.2077 23.167 39.9114 22.2849Z" fill="white"/>
<path d="M64.4387 44.6813C64.4429 44.4822 64.5052 44.2888 64.618 44.1252C64.7308 43.9617 64.8889 43.8353 65.0726 43.762C65.2564 43.6886 65.4575 43.6716 65.6508 43.7129C65.8441 43.7542 66.0211 43.8521 66.1594 43.9944C66.2977 44.1366 66.3913 44.3168 66.4285 44.5124C66.4656 44.708 66.4446 44.9103 66.3682 45.0939C66.2917 45.2775 66.1632 45.4343 65.9986 45.5447C65.8341 45.655 65.6409 45.7139 65.4433 45.7141C65.3095 45.7148 65.1769 45.6883 65.0534 45.6364C64.9299 45.5845 64.818 45.5081 64.7243 45.4118C64.6306 45.3155 64.5571 45.2012 64.508 45.0757C64.459 44.9502 64.4354 44.8161 64.4387 44.6813ZM64.6032 57.6158V46.7264H66.2817V57.6158H64.6032Z" fill="white"/>
<path d="M69.0266 49.398H70.5759V50.7026H70.6962C70.9004 50.2339 71.2446 49.8411 71.6808 49.5788C72.117 49.3166 72.6236 49.1979 73.1298 49.2393C73.5266 49.2093 73.9251 49.2696 74.2956 49.4157C74.6662 49.5619 74.9993 49.7902 75.2704 50.0838C75.5415 50.3773 75.7436 50.7286 75.8617 51.1115C75.9798 51.4944 76.0108 51.8992 75.9526 52.2959V57.6157H74.3431V52.7022C74.3431 51.3816 73.7736 50.7258 72.5833 50.7258C72.314 50.7131 72.0451 50.7592 71.7951 50.8611C71.5451 50.9629 71.3199 51.118 71.135 51.3157C70.95 51.5134 70.8097 51.7491 70.7236 52.0065C70.6374 52.264 70.6076 52.5372 70.636 52.8074V57.6159H69.0266V49.398Z" fill="white"/>
<path d="M78.0378 53.5025C78.0378 50.9058 79.3625 49.2608 81.423 49.2608C81.9326 49.2373 82.4384 49.3604 82.8812 49.6156C83.324 49.8709 83.6856 50.2479 83.9239 50.7025H84.0441V46.19H85.6536V57.6158H84.1113V56.3166H83.984C83.7276 56.7684 83.3534 57.1409 82.902 57.3938C82.4506 57.6466 81.9391 57.7703 81.423 57.7513C79.3484 57.7513 78.0378 56.1063 78.0378 53.5025ZM79.7004 53.5025C79.7004 55.2455 80.5157 56.2952 81.8794 56.2952C83.2359 56.2952 84.0742 55.2312 84.0742 53.5096C84.0742 51.7968 83.2271 50.7186 81.8794 50.7186C80.5245 50.7186 79.7003 51.7737 79.7003 53.5025H79.7004Z" fill="white"/>
<path d="M88.0837 46.967C88.0715 46.757 88.1221 46.5481 88.229 46.3674C88.336 46.1868 88.4943 46.0426 88.6834 45.9536C88.8726 45.8646 89.0839 45.8348 89.2901 45.8682C89.4962 45.9016 89.6876 45.9966 89.8396 46.1409C89.9915 46.2852 90.097 46.4721 90.1423 46.6774C90.1876 46.8828 90.1707 47.0971 90.0938 47.2927C90.0169 47.4883 89.8834 47.6561 89.7108 47.7744C89.5381 47.8927 89.3342 47.956 89.1254 47.9562C88.9919 47.963 88.8583 47.9426 88.7328 47.8961C88.6073 47.8496 88.4925 47.778 88.3951 47.6856C88.2978 47.5932 88.22 47.4819 88.1665 47.3584C88.113 47.2349 88.0848 47.1018 88.0837 46.967ZM88.3225 49.3979H89.9266V57.6158H88.3225V49.3979Z" fill="white"/>
<path d="M92.523 49.398H94.0723V50.658H94.1926C94.366 50.2205 94.6725 49.8496 95.0681 49.5985C95.4637 49.3475 95.9281 49.2292 96.3945 49.2607C96.6356 49.2579 96.8763 49.2806 97.1126 49.3285V50.929C96.8172 50.8658 96.5161 50.833 96.2141 50.831C95.9487 50.807 95.6812 50.8392 95.4288 50.9255C95.1764 51.0119 94.9448 51.1505 94.7487 51.3324C94.5527 51.5144 94.3966 51.7356 94.2904 51.982C94.1843 52.2283 94.1305 52.4943 94.1325 52.7629V57.6159H92.523L92.523 49.398Z" fill="white"/>
<path d="M98.8017 46.967C98.7894 46.757 98.8401 46.5481 98.947 46.3674C99.0539 46.1868 99.2122 46.0426 99.4014 45.9536C99.5906 45.8646 99.8019 45.8348 100.008 45.8682C100.214 45.9016 100.406 45.9966 100.558 46.1409C100.709 46.2852 100.815 46.4721 100.86 46.6774C100.906 46.8828 100.889 47.0971 100.812 47.2927C100.735 47.4883 100.601 47.6561 100.429 47.7744C100.256 47.8927 100.052 47.956 99.8434 47.9562C99.7098 47.963 99.5763 47.9426 99.4508 47.8961C99.3253 47.8496 99.2104 47.778 99.1131 47.6856C99.0158 47.5932 98.938 47.4819 98.8845 47.3584C98.831 47.2349 98.8028 47.1018 98.8017 46.967ZM99.0404 49.3979H100.645V57.6158H99.0404V49.3979Z" fill="white"/>
<path d="M103.241 49.398H104.79V50.7026H104.911C105.115 50.2339 105.459 49.8411 105.895 49.5788C106.331 49.3166 106.838 49.1979 107.344 49.2393C107.741 49.2093 108.139 49.2696 108.51 49.4157C108.881 49.5619 109.214 49.7902 109.485 50.0838C109.756 50.3773 109.958 50.7286 110.076 51.1115C110.194 51.4944 110.225 51.8992 110.167 52.2959V57.6157H108.557V52.7022C108.557 51.3816 107.988 50.7258 106.798 50.7258C106.528 50.7131 106.259 50.7592 106.009 50.8611C105.759 50.9629 105.534 51.118 105.349 51.3157C105.164 51.5134 105.024 51.7491 104.938 52.0065C104.852 52.264 104.822 52.5372 104.85 52.8074V57.6159H103.241V49.398Z" fill="white"/>
<path d="M76.6176 31.8956H68.045L65.9863 38.0211H62.3553L70.4751 15.3583H74.2476L82.3675 38.0211H78.6745L76.6176 31.8956ZM68.9329 29.069H75.7281L72.3782 19.1278H72.2844L68.9329 29.069Z" fill="white"/>
<path d="M99.9035 29.7605C99.9035 34.8951 97.1763 38.194 93.0607 38.194C92.0181 38.249 90.9813 38.007 90.0688 37.4957C89.1564 36.9845 88.4053 36.2246 87.9015 35.3032H87.8237V43.4872H84.4579V21.4981H87.7158V24.2463H87.7777C88.3046 23.3293 89.0684 22.5734 89.9878 22.059C90.9071 21.5447 91.9477 21.2911 92.9987 21.3252C97.1604 21.3252 99.9035 24.6402 99.9035 29.7605ZM96.4441 29.7605C96.4441 26.4153 94.7285 24.216 92.1109 24.216C89.5393 24.216 87.8096 26.4616 87.8096 29.7605C87.8096 33.0897 89.5393 35.3193 92.1109 35.3193C94.7285 35.3192 96.4441 33.1361 96.4441 29.7605H96.4441Z" fill="white"/>
<path d="M117.95 29.7605C117.95 34.8951 115.224 38.194 111.108 38.194C110.065 38.249 109.028 38.007 108.116 37.4957C107.204 36.9845 106.452 36.2247 105.949 35.3032H105.871V43.4872H102.505V21.4981H105.763V24.2463H105.825C106.352 23.3293 107.116 22.5734 108.035 22.059C108.954 21.5447 109.995 21.2911 111.046 21.3252C115.208 21.3252 117.95 24.6402 117.95 29.7605ZM114.491 29.7605C114.491 26.4153 112.776 24.216 110.158 24.216C107.586 24.216 105.857 26.4616 105.857 29.7605C105.857 33.0897 107.586 35.3193 110.158 35.3193C112.776 35.3192 114.491 33.1361 114.491 29.7605H114.491Z" fill="white"/>
<path d="M129.878 31.7067C130.127 33.9541 132.294 35.4297 135.254 35.4297C138.091 35.4297 140.132 33.954 140.132 31.9276C140.132 30.1686 138.901 29.1153 135.986 28.3935L133.072 27.6859C128.942 26.6808 127.025 24.7346 127.025 21.5764C127.025 17.6662 130.406 14.9804 135.208 14.9804C139.961 14.9804 143.218 17.6662 143.328 21.5764H139.931C139.727 19.3148 137.872 17.9496 135.16 17.9496C132.449 17.9496 130.594 19.3309 130.594 21.3412C130.594 22.9434 131.779 23.8862 134.678 24.608L137.155 25.221C141.77 26.3207 143.687 28.1885 143.687 31.5034C143.687 35.7433 140.336 38.3988 135.005 38.3988C130.017 38.3988 126.65 35.8057 126.432 31.7065L129.878 31.7067Z" fill="white"/>
<path d="M150.951 17.5879V21.4981H154.069V24.1839H150.951V33.2929C150.951 34.708 151.575 35.3674 152.946 35.3674C153.316 35.3609 153.686 35.3347 154.053 35.2889V37.9587C153.437 38.0747 152.81 38.1273 152.184 38.1155C148.864 38.1155 147.569 36.8591 147.569 33.6546V24.1839H145.185V21.4981H147.569V17.5879H150.951Z" fill="white"/>
<path d="M155.875 29.7605C155.875 24.5618 158.913 21.2949 163.652 21.2949C168.406 21.2949 171.43 24.5617 171.43 29.7605C171.43 34.9735 168.422 38.2261 163.652 38.2261C158.883 38.2261 155.875 34.9735 155.875 29.7605ZM168.001 29.7605C168.001 26.1943 166.379 24.0895 163.652 24.0895C160.924 24.0895 159.304 26.2103 159.304 29.7605C159.304 33.341 160.924 35.4298 163.652 35.4298C166.379 35.4298 168.001 33.3409 168.001 29.7605H168.001Z" fill="white"/>
<path d="M174.205 21.4981H177.415V24.3105H177.493C177.71 23.4321 178.221 22.6559 178.939 22.1122C179.657 21.5686 180.539 21.2907 181.437 21.3252C181.825 21.3239 182.212 21.3663 182.59 21.4518V24.6241C182.101 24.4734 181.59 24.4041 181.078 24.4192C180.589 24.3992 180.102 24.4861 179.649 24.6738C179.197 24.8616 178.79 25.1458 178.457 25.507C178.123 25.8681 177.872 26.2977 177.719 26.7661C177.566 27.2345 177.515 27.7307 177.571 28.2207V38.0212H174.205V21.4981Z" fill="white"/>
<path d="M198.108 33.1681C197.655 36.1676 194.757 38.2261 191.048 38.2261C186.278 38.2261 183.317 35.0056 183.317 29.8389C183.317 24.6562 186.294 21.2949 190.906 21.2949C195.443 21.2949 198.296 24.4352 198.296 29.4451V30.6071H186.715V30.812C186.661 31.4201 186.737 32.0327 186.936 32.6091C187.136 33.1855 187.455 33.7126 187.872 34.1552C188.289 34.5979 188.795 34.946 189.356 35.1765C189.917 35.407 190.52 35.5146 191.126 35.4921C191.921 35.5672 192.719 35.3816 193.401 34.9629C194.084 34.5442 194.614 33.9147 194.912 33.1681L198.108 33.1681ZM186.731 28.2367H194.928C194.958 27.6899 194.876 27.1428 194.687 26.6296C194.497 26.1164 194.204 25.6482 193.827 25.2544C193.449 24.8607 192.995 24.5498 192.492 24.3413C191.989 24.1329 191.45 24.0314 190.906 24.0431C190.358 24.0398 189.815 24.146 189.308 24.3554C188.801 24.5648 188.34 24.8733 187.951 25.2632C187.563 25.6531 187.255 26.1166 187.046 26.6269C186.836 27.1373 186.729 27.6844 186.731 28.2367Z" fill="white"/>
<path d="M200.556 23.651L202.395 15.3583H205.667L203.439 23.651H200.556Z" fill="white"/>
<path d="M205.521 29.7605C205.521 24.6562 208.31 21.3252 212.378 21.3252C213.421 21.2729 214.458 21.5195 215.368 22.0365C216.279 22.5535 217.025 23.3196 217.521 24.2463H217.584V15.3584H220.966V38.0212H217.692V35.2107H217.63C217.132 36.1566 216.375 36.9396 215.451 37.468C214.526 37.9964 213.471 38.2483 212.409 38.1942C208.31 38.194 205.521 34.8648 205.521 29.7605ZM208.964 29.7605C208.964 33.1521 210.68 35.3193 213.297 35.3193C215.885 35.3193 217.615 33.12 217.615 29.7605C217.615 26.4295 215.885 24.216 213.297 24.216C210.68 24.2159 208.964 26.3992 208.964 29.7605H208.964Z" fill="white"/>
<path d="M223.932 33.325C223.932 30.436 226.129 28.6912 230.025 28.4559L234.514 28.2045V26.9481C234.514 25.1106 233.315 24.0733 231.274 24.0733C230.517 23.9717 229.749 24.1519 229.115 24.5801C228.481 25.0083 228.023 25.6551 227.828 26.3991H224.68C224.774 23.4139 227.531 21.2948 231.366 21.2948C235.278 21.2948 237.866 23.446 237.866 26.6968V38.0211H234.64V35.3032H234.562C234.045 36.2248 233.292 36.9896 232.382 37.5175C231.471 38.0455 230.437 38.3173 229.387 38.3045C228.697 38.3725 228 38.2944 227.342 38.0752C226.684 37.8559 226.079 37.5004 225.565 37.0315C225.052 36.5626 224.641 35.9906 224.36 35.3523C224.079 34.7139 223.933 34.0234 223.932 33.325ZM234.514 31.8332V30.5607L230.478 30.812C228.467 30.9386 227.33 31.8172 227.33 33.2305C227.33 34.6759 228.515 35.6187 230.322 35.6187C230.846 35.6545 231.371 35.5842 231.867 35.4122C232.363 35.2401 232.82 34.9697 233.21 34.6169C233.601 34.2641 233.918 33.836 234.142 33.3579C234.366 32.8798 234.492 32.3614 234.514 31.8332H234.514Z" fill="white"/>
<path d="M241.295 21.4981H244.505V24.3104H244.583C245.039 23.3418 245.777 22.536 246.698 22.0002C247.62 21.4644 248.682 21.224 249.742 21.311C253.359 21.311 255.432 23.651 255.432 27.4347V38.0211H252.05V28.0941C252.05 25.6132 250.911 24.232 248.543 24.232C247.998 24.2181 247.457 24.3221 246.956 24.5369C246.454 24.7518 246.005 25.0724 245.637 25.4773C245.269 25.8822 244.991 26.3618 244.823 26.884C244.655 27.4061 244.599 27.9585 244.661 28.504V38.0211H241.295V21.4981Z" fill="white"/>
</svg>
