<svg width="273" height="73" viewBox="0 0 273 73" fill="none" xmlns="http://www.w3.org/2000/svg">
<path d="M262.889 73H10.1111C4.44889 73 0 68.8025 0 63.875V9.125C0 4.015 4.65111 0 10.1111 0H262.889C268.551 0 273 4.1975 273 9.125V63.875C273 68.985 268.551 73 262.889 73Z" fill="black"/>
<path d="M117.898 23.36C114.071 23.36 111.156 26.28 111.156 30.1125C111.156 33.945 114.253 36.865 117.898 36.865C121.724 36.865 124.64 33.945 124.64 30.1125C124.822 26.28 121.724 23.36 117.898 23.36ZM117.898 34.31C115.893 34.31 114.071 32.6675 114.071 30.1125C114.071 27.74 115.893 25.915 117.898 25.915C119.902 25.915 121.724 27.5575 121.724 30.1125C121.724 32.485 120.084 34.31 117.898 34.31ZM103.138 23.36C99.3111 23.36 96.3956 26.28 96.3956 30.1125C96.3956 33.945 99.4933 36.865 103.138 36.865C106.782 36.865 109.88 33.945 109.88 30.1125C109.88 26.28 106.782 23.36 103.138 23.36ZM103.138 34.31C101.133 34.31 99.3111 32.6675 99.3111 30.1125C99.3111 27.74 101.133 25.915 103.138 25.915C105.142 25.915 106.964 27.5575 106.964 30.1125C106.964 32.485 105.142 34.31 103.138 34.31ZM85.4622 25.3675V28.2875H92.3867C92.2044 29.93 91.6578 31.025 90.7467 31.9375C89.8356 32.85 88.1956 34.1275 85.4622 34.1275C81.2711 34.1275 77.9911 30.66 77.9911 26.4625C77.9911 22.265 81.2711 18.7975 85.4622 18.7975C87.8311 18.7975 89.4711 19.71 90.5644 20.805L92.5689 18.7975C90.9289 17.155 88.56 15.8775 85.28 15.8775C79.4489 15.8775 74.5289 20.6225 74.5289 26.4625C74.5289 32.3025 79.4489 37.0475 85.28 37.0475C88.3778 37.0475 90.7467 35.9525 92.5689 34.1275C94.3911 32.3025 95.12 29.565 95.12 27.375C95.12 26.645 95.12 26.0975 94.9378 25.55H85.4622V25.3675ZM157.622 27.74C157.076 26.28 155.253 23.36 151.791 23.36C148.329 23.36 145.413 26.0975 145.413 30.1125C145.413 33.945 148.329 36.865 152.156 36.865C155.253 36.865 157.076 35.04 157.804 33.945L155.436 32.485C154.707 33.58 153.613 34.31 152.156 34.31C150.698 34.31 149.604 33.58 148.876 32.3025L157.987 28.47L157.622 27.74ZM148.329 29.93C148.329 27.375 150.333 25.915 151.791 25.915C152.884 25.915 153.978 26.4625 154.342 27.375L148.329 29.93ZM141.04 36.5H143.956V16.6075H141.04V36.5ZM136.12 24.82C135.391 24.09 134.116 23.36 132.476 23.36C129.013 23.36 125.916 26.28 125.916 30.1125C125.916 33.945 129.013 36.865 132.476 36.865C134.116 36.865 135.391 36.135 136.12 35.405H136.302V36.3175C136.302 38.8725 134.844 40.3325 132.658 40.3325C130.836 40.3325 129.742 39.055 129.196 37.96L126.644 39.055C127.373 40.88 129.378 43.07 132.658 43.07C136.12 43.07 139.036 41.0625 139.036 35.9525V23.725H136.302V24.82H136.12ZM132.658 34.31C130.653 34.31 128.831 32.6675 128.831 30.295C128.831 27.9225 130.471 26.0975 132.658 26.0975C134.662 26.0975 136.302 27.9225 136.302 30.295C136.302 32.485 134.844 34.31 132.658 34.31ZM171.653 16.6075H164.547V36.5H167.462V29.0175H171.653C174.933 29.0175 178.213 26.645 178.213 22.8125C178.213 18.98 174.933 16.6075 171.653 16.6075ZM171.653 26.0975H167.462V19.345H171.653C173.84 19.345 175.116 21.17 175.116 22.8125C175.116 24.2725 173.84 26.0975 171.653 26.0975ZM190.058 23.36C187.871 23.36 185.684 24.2725 184.773 26.4625L187.324 27.5575C187.871 26.4625 188.964 26.0975 190.058 26.0975C191.516 26.0975 193.156 27.01 193.156 28.6525V28.835C192.609 28.47 191.516 28.105 190.058 28.105C187.142 28.105 184.409 29.7475 184.409 32.6675C184.409 35.405 186.778 37.0475 189.329 37.0475C191.333 37.0475 192.427 36.135 193.156 35.04H193.338V36.5H196.253V28.835C196.071 25.3675 193.338 23.36 190.058 23.36ZM189.693 34.31C188.782 34.31 187.324 33.7625 187.324 32.6675C187.324 31.2075 188.964 30.4775 190.422 30.4775C191.698 30.4775 192.427 30.8425 193.156 31.2075C192.973 32.85 191.333 34.31 189.693 34.31ZM206.458 23.725L202.996 32.3025H202.813L199.351 23.725H196.071L201.356 35.77L198.258 42.5225H201.356L209.556 23.725H206.458ZM179.671 36.5H182.587V16.6075H179.671V36.5Z" fill="white"/>
<path d="M18.9511 13.6875C18.4044 14.235 18.2222 15.1475 18.2222 16.2425V56.575C18.2222 57.67 18.5867 58.5825 19.1333 59.13L19.3155 59.3125L41.9111 36.6825V36.5V36.3175L18.9511 13.6875Z" fill="url(#paint0_linear)"/>
<path d="M49.2 44.3475L41.7289 36.865V36.5V36.3175L49.2 28.835L49.3822 29.0175L58.3111 34.1275C60.8622 35.5875 60.8622 37.96 58.3111 39.42L49.2 44.3475Z" fill="url(#paint1_linear)"/>
<path d="M49.3822 44.165L41.7289 36.5L18.9511 59.3125C19.8622 60.225 21.1378 60.225 22.7778 59.495L49.3822 44.165Z" fill="url(#paint2_linear)"/>
<path d="M49.3822 28.835L22.7778 13.6875C21.1378 12.775 19.8622 12.9575 18.9511 13.87L41.7289 36.5L49.3822 28.835Z" fill="url(#paint3_linear)"/>
<path opacity="0.2" d="M49.2 43.9825L22.7778 58.9475C21.32 59.86 20.0444 59.6775 19.1333 58.9475L18.9511 59.13L19.1333 59.3125C20.0444 60.0425 21.32 60.225 22.7778 59.3125L49.2 43.9825Z" fill="black"/>
<path opacity="0.12" d="M18.9511 58.9475C18.4044 58.4 18.2222 57.4875 18.2222 56.3925V56.575C18.2222 57.67 18.5867 58.5825 19.1333 59.13V58.9475H18.9511Z" fill="black"/>
<path opacity="0.12" d="M58.3111 38.8725L49.2 43.9825L49.3822 44.165L58.3111 39.055C59.5867 38.325 60.1333 37.4125 60.1333 36.5C60.1333 37.4125 59.4044 38.1425 58.3111 38.8725Z" fill="black"/>
<path opacity="0.25" d="M22.7778 13.87L58.3111 34.1275C59.4044 34.8575 60.1333 35.5875 60.1333 36.5C60.1333 35.5875 59.5867 34.675 58.3111 33.945L22.7778 13.6875C20.2267 12.2275 18.2222 13.3225 18.2222 16.2425V16.425C18.2222 13.6875 20.2267 12.41 22.7778 13.87Z" fill="white"/>
<path d="M76.1689 52.7425H74.8933V49.275H76.1689V52.7425Z" fill="white" stroke="white" stroke-width="0.2" stroke-miterlimit="10"/>
<path d="M78.5378 60.225V49.0925H82C83.64 49.0925 85.0978 49.64 86.0089 50.5525C87.1022 51.6475 87.4667 52.925 87.4667 54.5675C87.4667 56.21 86.92 57.4875 86.0089 58.5825C84.9156 59.6775 83.64 60.0425 82 60.0425H78.5378V60.225ZM79.9956 58.9475H82C83.2756 58.9475 84.3689 58.5825 85.0978 57.8525C85.8267 57.1225 86.1911 56.0275 86.1911 54.75C86.1911 53.4725 85.8267 52.3775 85.0978 51.6475C84.3689 50.9175 83.2756 50.5525 82 50.5525H79.9956V58.9475Z" fill="white" stroke="white" stroke-width="0.2" stroke-miterlimit="10"/>
<path d="M96.0311 50.5525H90.9289V54.02H95.4844V55.2975H90.9289V58.765H96.0311V60.225H89.4711V49.0925H96.0311V50.5525Z" fill="white" stroke="white" stroke-width="0.2" stroke-miterlimit="10"/>
<path d="M98.0356 60.225V49.0925H99.8578L105.324 57.67V55.48V48.91H106.782V60.225H105.324L99.6756 51.1V53.29V60.225H98.0356Z" fill="white" stroke="white" stroke-width="0.2" stroke-miterlimit="10"/>
<path d="M111.338 60.225L115.529 49.0925H117.169L121.36 60.225H119.72L118.627 57.305H113.889L112.796 60.225H111.338ZM114.436 55.845H118.08L116.258 50.9175L114.436 55.845Z" fill="white" stroke="white" stroke-width="0.2" stroke-miterlimit="10"/>
<path d="M122.636 60.225V49.0925H124.093V58.765H128.831V60.225H122.636Z" fill="white" stroke="white" stroke-width="0.2" stroke-miterlimit="10"/>
<path d="M130.471 60.225V49.0925H131.929V60.225H130.471Z" fill="white" stroke="white" stroke-width="0.2" stroke-miterlimit="10"/>
<path d="M134.48 60.225V49.0925H136.302L141.769 57.67V55.48V48.91H143.227V60.225H141.769L136.12 51.1V53.29V60.225H134.48Z" fill="white" stroke="white" stroke-width="0.2" stroke-miterlimit="10"/>
<defs>
<linearGradient id="paint0_linear" x1="39.7241" y1="15.8954" x2="9.09623" y2="46.4766" gradientUnits="userSpaceOnUse">
<stop stop-color="#00A0FF"/>
<stop offset="0.00657445" stop-color="#00A1FF"/>
<stop offset="0.2601" stop-color="#00BEFF"/>
<stop offset="0.5122" stop-color="#00D2FF"/>
<stop offset="0.7604" stop-color="#00DFFF"/>
<stop offset="1" stop-color="#00E3FF"/>
</linearGradient>
<linearGradient id="paint1_linear" x1="61.654" y1="36.5029" x2="17.5618" y2="36.5029" gradientUnits="userSpaceOnUse">
<stop stop-color="#FFE000"/>
<stop offset="0.4087" stop-color="#FFBD00"/>
<stop offset="0.7754" stop-color="#FFA500"/>
<stop offset="1" stop-color="#FF9C00"/>
</linearGradient>
<linearGradient id="paint2_linear" x1="45.2403" y1="40.6906" x2="3.70665" y2="82.1612" gradientUnits="userSpaceOnUse">
<stop stop-color="#FF3A44"/>
<stop offset="1" stop-color="#C31162"/>
</linearGradient>
<linearGradient id="paint3_linear" x1="13.2975" y1="0.321725" x2="31.844" y2="18.84" gradientUnits="userSpaceOnUse">
<stop stop-color="#32A071"/>
<stop offset="0.0685" stop-color="#2DA771"/>
<stop offset="0.4762" stop-color="#15CF74"/>
<stop offset="0.8009" stop-color="#06E775"/>
<stop offset="1" stop-color="#00F076"/>
</linearGradient>
</defs>
</svg>
