<svg xmlns="http://www.w3.org/2000/svg" xmlns:xlink="http://www.w3.org/1999/xlink" width="121" height="45" viewBox="0 0 121 45">
  <defs>
    <clipPath id="clip-path">
      <rect id="Rectangle_1955" data-name="Rectangle 1955" width="121" height="45"/>
    </clipPath>
    <clipPath id="clip-path-2">
      <path id="Clip_9" data-name="Clip 9" d="M0,0H19.331V21.391H0Z" fill="none"/>
    </clipPath>
  </defs>
  <g id="Artboard_1" data-name="Artboard – 1" clip-path="url(#clip-path)">
    <g id="Group_16" data-name="Group 16" transform="translate(1.001 -0.481)">
      <path id="Fill_1" data-name="Fill 1" d="M12.713,0,2.02,10.888V0H0V21.384H2.02V13.367l2.253-2.291,8.581,10.308H15.32L5.606,9.715,15.137,0Z" transform="translate(0 23.878)" fill="#fff"/>
      <path id="Fill_2" data-name="Fill 2" d="M1.955,21.391H0L8.727,0h1.82L19.33,21.389H17.016l-2.894-7.238H4.856l-2.9,7.236ZM9.452,2.55,5.509,12.59h7.963Z" transform="translate(17.885 23.871)" fill="#fff"/>
      <path id="Fill_3" data-name="Fill 3" d="M1.955,21.391H0L8.727,0h1.82L19.33,21.389H17.016l-2.894-7.238H4.857l-2.9,7.236ZM9.453,2.55,5.509,12.59h7.963Z" transform="translate(59.144 23.871)" fill="#fff"/>
      <g id="Group_15" data-name="Group 15" transform="translate(41.67 0.481)">
        <path id="Fill_4" data-name="Fill 4" d="M2.02,21.393H0V0H5.876a8.967,8.967,0,0,1,5.68,1.6,5.476,5.476,0,0,1,2.013,4.53c0,3.266-1.9,5.466-5.347,6.2l6.449,9.061H12.194l-6.257-8.8H2.02v8.805Zm0-19.7v9.263h3.6A6.854,6.854,0,0,0,9.943,9.713a4.25,4.25,0,0,0,1.54-3.447A4.067,4.067,0,0,0,9.992,2.86,7.071,7.071,0,0,0,5.615,1.7H4.083Z" transform="translate(0 23.39)" fill="#fff"/>
        <path id="Fill_6" data-name="Fill 6" d="M17.068,19.871a11.155,11.155,0,0,1-6.5,1.911C4.458,21.782,0,17.324,0,11.017,0,4.648,4.522,0,10.572,0a12.191,12.191,0,0,1,6.305,1.719l-.891,1.657a10.656,10.656,0,0,0-5.6-1.528c-4.84,0-8.28,3.693-8.28,8.915,0,5.287,3.694,9.172,8.79,9.172a9.679,9.679,0,0,0,5.4-1.657Z" transform="translate(39.195 23.218)" fill="#fff"/>
        <g id="Group_10" data-name="Group 10" transform="translate(58.677 23.39)">
          <path id="Clip_9-2" data-name="Clip 9" d="M0,0H19.331V21.391H0Z" fill="none"/>
          <g id="Group_10-2" data-name="Group 10" clip-path="url(#clip-path-2)">
            <path id="Fill_8" data-name="Fill 8" d="M1.955,21.391H0L8.727,0h1.821l8.783,21.389H17.015l-2.893-7.238H4.856l-2.9,7.236ZM9.452,2.55,5.509,12.59h7.963Z" fill="#fff"/>
          </g>
        </g>
        <path id="Fill_11" data-name="Fill 11" d="M15.174,8.336a4.377,4.377,0,0,0-.043-1.564,2.6,2.6,0,0,0-.869-1.6,1.36,1.36,0,0,0-1.232-.154,2.9,2.9,0,0,0-.351.125c-.142.071-.057.117.01.1a.985.985,0,0,0,.1-.014,1.066,1.066,0,0,1,1.321.837,2.034,2.034,0,0,1-.9,2.093A2.628,2.628,0,0,1,9.971,7.6a1.215,1.215,0,0,1-.186-1.623.7.7,0,0,1,.463-.227c.2-.015-.023.336-.062.4-.117.2.2.432.346.242.328-.42.458-1.094-.24-1.216A1.481,1.481,0,0,0,8.77,6.247,2.211,2.211,0,0,0,9.888,8.763a3.617,3.617,0,0,0,2.736.45A2.5,2.5,0,0,0,14.6,6.423a4.961,4.961,0,0,1-.135,2.261c-.668,2.065-3.551,2.872-5.363,1.874C7.8,9.84,7.361,8.24,7.039,6.907A19.091,19.091,0,0,0,5.585,2.188,4.052,4.052,0,0,0,3.1.144C1.948-.187.083-.027,0,1.471a.133.133,0,0,0,.2.105,2.3,2.3,0,0,1,1.313-.519,2.625,2.625,0,0,1,1.2.41,3.409,3.409,0,0,1,1.2,1.373,4.26,4.26,0,0,1,.375.846c.14.384.254.78.362,1.178.21.791.479,1.58.737,2.361a7.568,7.568,0,0,0,2.539,4.047,4.9,4.9,0,0,0,5.816-.4A4.077,4.077,0,0,0,15.1,8.7v.008a2.686,2.686,0,0,1-.647,2.011c-.465.58-1.054,1.056-1.54,1.62-1.023,1.189-1.331,2.209-.877,3.186a1.215,1.215,0,0,0,2.109.156.745.745,0,0,0-.76-1.2c-.131.02-.128.223.013.215.994-.075.615,1.141-.159,1.018-.959-.149-.474-1.42-.2-1.929.413-.782,1.186-1.621,1.711-2.526a2.9,2.9,0,0,0,.425-2.914.072.072,0,0,0,0-.009" transform="translate(2.504)" fill="#fff"/>
        <path id="Fill_13" data-name="Fill 13" d="M12.307.144A4.051,4.051,0,0,0,9.818,2.188,19.072,19.072,0,0,0,8.365,6.907C8.043,8.24,7.6,9.84,6.3,10.558c-1.812,1-4.7.191-5.363-1.874A4.961,4.961,0,0,1,.8,6.423,2.5,2.5,0,0,0,2.779,9.214a3.617,3.617,0,0,0,2.736-.45A2.211,2.211,0,0,0,6.633,6.247,1.481,1.481,0,0,0,5.111,5.173c-.7.121-.568.8-.24,1.216.147.19.463-.039.345-.242-.039-.065-.257-.415-.061-.4a.7.7,0,0,1,.463.227A1.214,1.214,0,0,1,5.432,7.6a2.628,2.628,0,0,1-3.243.563,2.036,2.036,0,0,1-.9-2.093A1.066,1.066,0,0,1,2.61,5.233a.99.99,0,0,0,.1.014c.067.016.153-.029.01-.1a2.9,2.9,0,0,0-.351-.125,1.359,1.359,0,0,0-1.231.154,2.6,2.6,0,0,0-.869,1.6,4.366,4.366,0,0,0-.04,1.56v.009a2.894,2.894,0,0,0,.426,2.914c.525.9,1.3,1.744,1.711,2.526.269.508.754,1.779-.2,1.929C1.384,15.836,1,14.62,2,14.7c.14.008.144-.2.012-.215a.744.744,0,0,0-.759,1.2,1.215,1.215,0,0,0,2.109-.156c.455-.977.146-2-.877-3.186C2,11.776,1.408,11.3.944,10.72A2.686,2.686,0,0,1,.3,8.709V8.7a4.077,4.077,0,0,0,1.359,2.173,4.9,4.9,0,0,0,5.816.4,7.571,7.571,0,0,0,2.539-4.047c.257-.78.527-1.57.737-2.361.108-.4.223-.794.363-1.178a4.233,4.233,0,0,1,.375-.846,3.408,3.408,0,0,1,1.2-1.373,2.628,2.628,0,0,1,1.2-.41,2.3,2.3,0,0,1,1.313.519.133.133,0,0,0,.2-.105c-.083-1.5-1.948-1.659-3.1-1.327" transform="translate(18.43)" fill="#fff"/>
      </g>
    </g>
  </g>
</svg>
