<svg id="Logo_Mark" data-name="Logo Mark" xmlns="http://www.w3.org/2000/svg" width="48.001" height="24.001" viewBox="0 0 48.001 24.001">
  <path id="Fill_1" data-name="Fill 1" d="M20.181,24a1.877,1.877,0,0,1-1.691-1.042c-.688-1.414-.259-2.911,1.35-4.711.345-.386.733-.756,1.109-1.114A17.363,17.363,0,0,0,22.2,15.86a3.937,3.937,0,0,0,.986-2.975,6.041,6.041,0,0,1-2.09,3.224,7.743,7.743,0,0,1-8.924.591,11.08,11.08,0,0,1-3.885-5.991c-.1-.316-.212-.634-.321-.954-.283-.832-.575-1.691-.8-2.54l-.043-.141C6.954,6.544,6.785,6,6.6,5.478a6,6,0,0,0-.583-1.261A4.888,4.888,0,0,0,4.174,2.179a4.35,4.35,0,0,0-1.839-.607,3.571,3.571,0,0,0-2.02.759.209.209,0,0,1-.1.032A.207.207,0,0,1,0,2.179C.125.161,2.418,0,3.118,0a6.08,6.08,0,0,1,1.621.22A6.06,6.06,0,0,1,8.554,3.245a27.4,27.4,0,0,1,2.227,6.988,7.778,7.778,0,0,0,3.167,5.405l.059.028.084.042a6.075,6.075,0,0,0,8.078-2.851,7.186,7.186,0,0,0,.205-3.343,3.749,3.749,0,0,1-3.035,4.118,5.811,5.811,0,0,1-4.2-.672A3.274,3.274,0,0,1,13.43,9.223,2.272,2.272,0,0,1,15.6,7.632q.082,0,.165.006a.835.835,0,0,1,.711.488,1.481,1.481,0,0,1-.349,1.316.273.273,0,0,1-.212.095.4.4,0,0,1-.333-.194.256.256,0,0,1,0-.268c.006-.011.016-.029.029-.053.073-.128.224-.393.165-.494a.091.091,0,0,0-.086-.039h-.017a1,1,0,0,0-.721.324,1.784,1.784,0,0,0,.292,2.419,4.118,4.118,0,0,0,4.963.824,2.987,2.987,0,0,0,1.372-3.1c-.008-.038-.019-.078-.03-.116a1.616,1.616,0,0,0-1.993-1.121,1.068,1.068,0,0,1-.159.022.221.221,0,0,1-.042,0c-.052,0-.092-.018-.1-.044s.006-.058.121-.114a3.841,3.841,0,0,1,.537-.194,2.18,2.18,0,0,1,.7-.117,2.155,2.155,0,0,1,1.186.354A3.9,3.9,0,0,1,23.136,10a6.2,6.2,0,0,1,.073,2.3,4.464,4.464,0,0,1-.562,4.363c-.381.619-.847,1.229-1.3,1.819A16.2,16.2,0,0,0,20.018,20.4c-.086.157-.831,1.56-.436,2.354a.93.93,0,0,0,.752.489,1.11,1.11,0,0,0,.175.014,1,1,0,0,0,.973-.759.591.591,0,0,0-.1-.506.832.832,0,0,0-.674-.251q-.06,0-.125,0a.169.169,0,0,1-.154-.132.164.164,0,0,1,.027-.124.166.166,0,0,1,.108-.068,1.1,1.1,0,0,1,.322-.048,1.118,1.118,0,0,1,.723.267,1.1,1.1,0,0,1,.122,1.561,1.89,1.89,0,0,1-1.546.8Zm7.666-.021a1.9,1.9,0,0,1-1.546-.8,1.094,1.094,0,0,1-.216-1.029,1.11,1.11,0,0,1,1.382-.751.177.177,0,0,1,.141.193.139.139,0,0,1-.143.132h-.021q-.081-.007-.153-.007a.8.8,0,0,0-.651.245.591.591,0,0,0-.095.512,1.026,1.026,0,0,0,.99.759,1.118,1.118,0,0,0,.158-.011.929.929,0,0,0,.75-.481c.381-.756-.3-2.1-.437-2.362a15.287,15.287,0,0,0-1.3-1.874,20.915,20.915,0,0,1-1.324-1.863,4.194,4.194,0,0,1-.651-4.3v-.032a6.2,6.2,0,0,1,.065-2.322A3.683,3.683,0,0,1,26.12,7.625,2.09,2.09,0,0,1,27.3,7.262a2.068,2.068,0,0,1,.711.125c.039.017.113.041.2.069.124.041.264.087.345.125.106.059.114.1.109.117s-.042.041-.091.041a.234.234,0,0,1-.043,0,1.077,1.077,0,0,1-.157-.022.772.772,0,0,0-.113-.027,1.641,1.641,0,0,0-.321-.032,1.625,1.625,0,0,0-1.587,1.3,2.942,2.942,0,0,0,1.369,3.1,4.118,4.118,0,0,0,4.963-.823c.288-.335,1.159-1.5.294-2.419a1.212,1.212,0,0,0-.721-.324h-.019a.105.105,0,0,0-.1.046c-.062.114.124.406.194.517l.015.024a.237.237,0,0,1,.005.252.4.4,0,0,1-.33.2.267.267,0,0,1-.215-.1,1.468,1.468,0,0,1-.368-1.309.845.845,0,0,1,.727-.494q.093-.008.185-.008A2.231,2.231,0,0,1,34.5,9.2a3.222,3.222,0,0,1-1.706,3.737,5.7,5.7,0,0,1-4.2.672,3.726,3.726,0,0,1-3.01-4.126,7.219,7.219,0,0,0,.2,3.343c.012.023.024.047.035.07s.023.048.035.07A6.079,6.079,0,0,0,34.007,15.6,7.863,7.863,0,0,0,37.152,10.2,27.292,27.292,0,0,1,39.377,3.21,6.2,6.2,0,0,1,43.189.183l.005.035A6.087,6.087,0,0,1,44.823,0C46.7,0,47.891.812,48,2.173a.229.229,0,0,1-.03.095.21.21,0,0,1-.284.057,3.575,3.575,0,0,0-2.022-.759,4.193,4.193,0,0,0-1.841.607,5.014,5.014,0,0,0-1.839,2.038A6.574,6.574,0,0,0,41.4,5.473a15.737,15.737,0,0,0-.562,1.736c-.311,1.165-.722,2.339-1.119,3.474l-.007.02a11.166,11.166,0,0,1-3.888,5.991,7.7,7.7,0,0,1-8.894-.586,5.923,5.923,0,0,1-2.087-3.224,3.872,3.872,0,0,0,.975,2.97,17.329,17.329,0,0,0,1.263,1.29c.37.353.752.717,1.094,1.1,1.6,1.789,2.034,3.286,1.35,4.712a1.86,1.86,0,0,1-.594.683A1.881,1.881,0,0,1,27.847,23.979Z" transform="translate(0 0)" fill="#383838"/>
</svg>
