<svg xmlns="http://www.w3.org/2000/svg" width="123.02" height="46.256" viewBox="0 0 123.02 46.256">
    <defs>
        <clipPath id="clip-path">
            <path id="Clip_9" d="M0 0h19.871v21.988H0z" class="cls-1" transform="translate(.172 .403)"/>
        </clipPath>
        <style>
            .cls-1{fill:none}.cls-2{fill:#080a09}
        </style>
    </defs>
    <g id="Group_16" transform="translate(0 -.481)">
        <path id="Fill_1" d="M13.068 0L2.076 11.192V0H0v21.981h2.076V13.74l2.316-2.355 8.821 10.6h2.535l-9.985-12L15.56 0z" class="cls-2" transform="translate(0 24.531)"/>
        <path id="Fill_2" d="M2.009 21.989H0L8.971 0h1.871l9.028 21.987h-2.378l-2.975-7.44H4.992L2.01 21.988zM9.716 2.622L5.663 12.941h8.186z" class="cls-2" transform="translate(18.385 24.524)"/>
        <path id="Fill_3" d="M2.009 21.989H0L8.971 0h1.871l9.028 21.987h-2.378l-2.975-7.44H4.993L2.01 21.988zM9.717 2.622L5.663 12.941h8.186z" class="cls-2" transform="translate(60.795 24.524)"/>
        <g id="Group_15" transform="translate(42.827 .061)">
            <path id="Fill_4" d="M2.076 21.991H0V0h6.043a9.217 9.217 0 0 1 5.836 1.65 5.629 5.629 0 0 1 2.069 4.657c0 3.358-1.952 5.619-5.5 6.368l6.629 9.314h-2.546L6.1 12.94H2.076v9.05zm0-20.246v9.522h3.7a7.046 7.046 0 0 0 4.449-1.281A4.368 4.368 0 0 0 11.8 6.441a4.18 4.18 0 0 0-1.533-3.5 7.269 7.269 0 0 0-4.5-1.189H4.192z" class="cls-2" transform="translate(.007 24.463)"/>
            <path id="Fill_6" d="M17.545 20.426a11.466 11.466 0 0 1-6.678 1.964C4.582 22.39 0 17.807 0 11.325 0 4.777 4.648 0 10.867 0a12.531 12.531 0 0 1 6.481 1.767l-.916 1.7A10.953 10.953 0 0 0 10.671 1.9C5.7 1.9 2.16 5.695 2.16 11.063c0 5.434 3.8 9.428 9.035 9.428a9.95 9.95 0 0 0 5.565-1.7z" class="cls-2" transform="translate(40.296 24.286)"/>
            <g id="Group_10" transform="translate(60.15 24.06)">
                <path id="Clip_9-2" d="M0 0h19.871v21.988H0z" class="cls-1" transform="translate(.172 .403)"/>
                <g id="Group_10-2" clip-path="url(#clip-path)">
                    <path id="Fill_8" d="M2.009 21.989H0L8.97 0h1.872l9.028 21.987h-2.38l-2.974-7.44H4.991L2.01 21.988zM9.716 2.622L5.663 12.941h8.185z" class="cls-2" transform="translate(.172 .403)"/>
                </g>
            </g>
            <path id="Fill_11" d="M15.6 8.569a4.5 4.5 0 0 0-.044-1.608 2.669 2.669 0 0 0-.893-1.646 1.4 1.4 0 0 0-1.266-.158 2.982 2.982 0 0 0-.36.129c-.146.073-.058.12.01.1a1.013 1.013 0 0 0 .1-.014 1.1 1.1 0 0 1 1.358.861 2.091 2.091 0 0 1-.923 2.152 2.7 2.7 0 0 1-3.333-.579 1.249 1.249 0 0 1-.191-1.668.72.72 0 0 1 .476-.233c.2-.015-.024.345-.064.411-.12.208.2.444.356.249.337-.432.471-1.125-.247-1.25a1.522 1.522 0 0 0-1.565 1.1 2.273 2.273 0 0 0 1.149 2.587 3.718 3.718 0 0 0 2.813.463A2.574 2.574 0 0 0 15.005 6.6a5.1 5.1 0 0 1-.139 2.324c-.687 2.123-3.65 2.952-5.513 1.927C8.019 10.115 7.566 8.47 7.235 7.1a19.624 19.624 0 0 0-1.494-4.851A4.165 4.165 0 0 0 3.184.148C2-.192.085-.027 0 1.512a.137.137 0 0 0 .21.108 2.362 2.362 0 0 1 1.35-.533 2.7 2.7 0 0 1 1.229.421A3.5 3.5 0 0 1 4.023 2.92a4.378 4.378 0 0 1 .386.87c.143.395.261.8.372 1.211.216.813.493 1.625.758 2.427a7.779 7.779 0 0 0 2.61 4.16 5.035 5.035 0 0 0 5.978-.41 4.191 4.191 0 0 0 1.4-2.234v.008a2.761 2.761 0 0 1-.665 2.067c-.478.6-1.083 1.085-1.583 1.665-1.052 1.222-1.369 2.27-.9 3.275a1.249 1.249 0 0 0 2.168.161.765.765 0 0 0-.781-1.236c-.135.02-.131.23.013.221 1.022-.077.632 1.173-.163 1.046-.986-.154-.487-1.46-.211-1.983.425-.8 1.219-1.666 1.759-2.6a2.975 2.975 0 0 0 .437-3 .074.074 0 0 0 0-.009" class="cls-2" transform="translate(2.58 .42)"/>
            <path id="Fill_13" d="M12.65.148a4.164 4.164 0 0 0-2.558 2.1A19.6 19.6 0 0 0 8.6 7.1c-.331 1.37-.784 3.015-2.119 3.753-1.862 1.025-4.826.2-5.513-1.927A5.1 5.1 0 0 1 .828 6.6a2.575 2.575 0 0 0 2.029 2.871 3.718 3.718 0 0 0 2.813-.463 2.273 2.273 0 0 0 1.148-2.587 1.522 1.522 0 0 0-1.565-1.1c-.718.125-.584.818-.247 1.25.152.2.475-.04.355-.249-.04-.066-.265-.426-.063-.411a.719.719 0 0 1 .475.233 1.248 1.248 0 0 1-.191 1.668 2.7 2.7 0 0 1-3.333.579 2.093 2.093 0 0 1-.923-2.152 1.1 1.1 0 0 1 1.358-.861 1.017 1.017 0 0 0 .1.014c.069.017.157-.03.011-.1a2.982 2.982 0 0 0-.36-.129 1.4 1.4 0 0 0-1.266.158 2.668 2.668 0 0 0-.889 1.64 4.488 4.488 0 0 0-.044 1.608v.009a2.974 2.974 0 0 0 .437 3c.54.93 1.334 1.792 1.759 2.6.277.523.775 1.829-.211 1.983-.795.127-1.185-1.123-.163-1.046.144.009.148-.2.013-.221a.765.765 0 0 0-.781 1.236 1.249 1.249 0 0 0 2.168-.161c.467-1 .15-2.053-.9-3.275-.5-.58-1.1-1.069-1.583-1.665A2.761 2.761 0 0 1 .3 8.952v-.008a4.191 4.191 0 0 0 1.4 2.234 5.035 5.035 0 0 0 5.978.41 7.783 7.783 0 0 0 2.61-4.16c.265-.8.542-1.613.757-2.427.111-.409.229-.816.373-1.211a4.351 4.351 0 0 1 .386-.87 3.5 3.5 0 0 1 1.233-1.412 2.7 2.7 0 0 1 1.23-.421 2.365 2.365 0 0 1 1.35.533.137.137 0 0 0 .21-.108c-.086-1.54-2-1.7-3.184-1.364" class="cls-2" transform="translate(18.952 .42)"/>
        </g>
    </g>
</svg>
